<?xml version="1.0" encoding="UTF-8"?>
<!DOCTYPE svg PUBLIC "-//W3C//DTD SVG 1.1//EN" "http://www.w3.org/Graphics/SVG/1.1/DTD/svg11.dtd">
<!-- Creator: CorelDRAW 2021.5 -->
<svg xmlns="http://www.w3.org/2000/svg" xml:space="preserve" width="371.178mm" height="99.2927mm" version="1.1" style="shape-rendering:geometricPrecision; text-rendering:geometricPrecision; image-rendering:optimizeQuality; fill-rule:evenodd; clip-rule:evenodd"
viewBox="0 0 37117.82 9929.26"
 xmlns:xlink="http://www.w3.org/1999/xlink"
 xmlns:xodm="http://www.corel.com/coreldraw/odm/2003">
 <defs>
  <style type="text/css">
   <![CDATA[
    .fil0 {fill:#BFA15A}
    .fil2 {fill:white}
    .fil1 {fill:white;fill-rule:nonzero}
   ]]>
  </style>
 </defs>
 <g id="Layer_x0020_1">
  <metadata id="CorelCorpID_0Corel-Layer"/>
  <path class="fil0" d="M5158.32 6788.39l-1137.07 0 0 -1504.98 568.54 0 0 836.11 702.32 0 0 -836.11c582.52,0 1137.11,20.93 1137.11,769.2 0,679.21 -594.29,735.78 -1270.9,735.78zm-568.53 -2106.98l-568.54 0 0 -1304.31 1404.65 0c359.58,0 769.2,168.43 769.2,501.66 0,551.82 -93.3,802.65 -902.99,802.65l0 -869.53 -702.32 0 0 869.53zm-1839.4 -1304.31l568.54 0 0 3411.29 -568.54 0 0 601.99 2442.5 1.11c175.62,-5.26 226.89,-36.94 433.32,-34.88 533.74,5.25 1006.84,-152.12 1305.66,-567.24 499.65,-694.02 100.1,-1692.17 -536.1,-1840.42 102.66,-140.11 535.11,-313.67 535.11,-969.86 0,-583.03 -393.07,-1061.03 -920.64,-1152.91 -525.56,-91.52 -2621.51,-51.08 -3259.85,-51.08l0 602z"/>
  <path class="fil1" d="M16200.9 8938.12c0,67.49 -12.53,131.24 -37.59,191.25 -25.28,60.24 -61.33,113 -108.6,158.51 -48.8,46.82 -103.98,82.66 -165.54,107.5 -61.33,24.84 -124.87,37.37 -190.6,37.37 -57.38,0 -113.87,-9.67 -168.83,-29.24 -55.18,-19.56 -105.75,-47.7 -151.69,-84.2 -59.36,-47.26 -104.65,-103.54 -136.3,-169.27 -31.44,-65.73 -47.27,-136.3 -47.27,-211.92 0,-67.93 12.53,-131.47 37.37,-191.04 24.85,-59.36 61.34,-112.34 109.48,-158.73 47.27,-45.94 102.01,-81.56 164.44,-106.84 62.44,-25.28 126.85,-38.03 192.8,-38.03 65.73,0 129.71,12.75 191.7,38.03 62,25.28 116.73,60.9 164.44,106.84 47.7,46.39 83.98,99.37 108.82,159.17 24.84,59.57 37.37,123.1 37.37,190.6zm-502.33 315.24c85.52,0 156.09,-29.89 211.71,-89.91 55.62,-59.8 83.53,-134.76 83.53,-225.11 0,-89.26 -28.13,-164.44 -84.41,-225.34 -56.28,-60.89 -126.63,-91.45 -210.83,-91.45 -85.52,0 -156.3,30.34 -212.58,91.23 -56.28,60.68 -84.42,135.86 -84.42,225.56 0,91.01 27.7,166.41 83.1,225.77 55.4,59.58 126.85,89.25 213.9,89.25zm1543.37 -788.78l0 587.19c0,127.73 -33.64,223.36 -101.13,286.45 -67.49,63.09 -169.06,94.53 -304.92,94.53 -137.83,0 -240.5,-31.44 -307.99,-94.53 -67.49,-63.09 -101.12,-158.72 -101.12,-286.45l0 -587.19 200.49 0 0 555.54c0,77.82 17.15,136.29 51.44,175.65 34.51,39.35 85.74,58.91 154.11,58.91 68.59,0 120.69,-19.78 155.86,-59.35 35.18,-39.57 52.76,-97.83 52.76,-175.21l0 -555.54 200.5 0zm950.24 943.11l-232.59 0 -247.54 -440.34 0 440.34 -201.81 0 0 -943.11 288.87 0c114.54,0 200.27,22.21 257.43,66.83 56.94,44.41 85.52,111.24 85.52,200.72 0,64.85 -19.57,120.25 -58.48,166.19 -39.13,46.17 -89.47,72.99 -151.25,80.69l259.85 428.68zm-480.13 -540.8l30.34 0c81.34,0 135.2,-9.02 161.36,-26.82 26.16,-17.81 39.13,-48.81 39.13,-92.99 0,-46.39 -14.07,-79.37 -42.2,-98.93 -27.92,-19.57 -80.69,-29.24 -158.29,-29.24l-30.34 0 0 247.98zm661.38 540.8l0 -943.11 201.81 0 0 943.11 -201.81 0zm715.24 0l-348.23 -943.11 222.7 0 183.78 588.07c3.3,12.09 8.8,34.52 16.05,67.05 7.26,32.76 15.17,69.91 23.31,111.46 5.49,-40.45 11.65,-76.28 18.46,-107.5 6.6,-31.44 13.19,-57.16 19.57,-77.38l186.2 -581.7 220.28 0 -350.86 943.11 -191.26 0zm703.58 0l0 -943.11 555.31 0 0 170.16 -353.5 0 0 193.9 353.5 0 0 171.47 -353.5 0 0 236.11 353.5 0 0 171.47 -555.31 0zm752.18 -119.81l112.33 -126.85c14.29,34.74 36.94,62.22 68.37,82.22 31.22,20.01 66.4,29.9 105.53,29.9 47.04,0 84.41,-11.21 111.89,-33.42 27.48,-22.42 41.11,-52.54 41.11,-90.35 0,-44.63 -45.72,-89.03 -136.96,-133.44 -29.45,-14.07 -52.98,-25.72 -70.12,-34.74 -82.44,-42.86 -139.6,-84.85 -171.26,-125.96 -31.87,-40.89 -47.7,-89.7 -47.7,-146.42 0,-77.82 30.77,-141.57 92.33,-191.7 61.55,-49.9 141.58,-74.96 239.84,-74.96 56.94,0 106.18,9.89 147.73,29.9 41.33,20 78.05,51.22 109.7,93.65l-119.15 113.88c-14.07,-27.48 -32.97,-47.93 -56.28,-61.56 -23.3,-13.41 -51.44,-20.22 -84.42,-20.22 -40.01,0 -72.1,9.89 -96.5,29.89 -24.41,20.01 -36.72,45.95 -36.72,77.61 0,49.9 48.37,95.41 145.32,136.74 19.34,8.13 34.07,14.51 44.4,19.34 79.8,36.49 138.94,77.6 177.41,123.55 38.47,45.95 57.6,98.49 57.6,157.19 0,88.59 -30.12,159.16 -90.57,211.7 -60.24,52.54 -141.36,78.92 -243.14,78.92 -72.11,0 -133.89,-12.53 -185.55,-37.37 -51.44,-24.84 -89.91,-60.68 -115.19,-107.5zm1347.71 -238.97l-105.74 -304.69c-2.86,-9.02 -6.81,-24.62 -11.43,-46.39 -4.84,-21.98 -9.67,-48.8 -14.95,-80.68 -5.5,30.56 -10.99,58.04 -16.05,82.22 -5.05,24.4 -9.01,40.45 -11.65,48.59l-101.78 300.95 261.6 0zm-600.6 358.78l359 -943.11 230.61 0 364.05 943.11 -229.29 0 -76.72 -200.49 -365.37 0 -65.73 200.49 -216.55 0zm1794.21 0l-232.59 0 -247.54 -440.34 0 440.34 -201.81 0 0 -943.11 288.87 0c114.54,0 200.27,22.21 257.43,66.83 56.94,44.41 85.52,111.24 85.52,200.72 0,64.85 -19.57,120.25 -58.48,166.19 -39.13,46.17 -89.47,72.99 -151.25,80.69l259.85 428.68zm-480.13 -540.8l30.34 0c81.34,0 135.2,-9.02 161.36,-26.82 26.16,-17.81 39.13,-48.81 39.13,-92.99 0,-46.39 -14.07,-79.37 -42.2,-98.93 -27.92,-19.57 -80.69,-29.24 -158.29,-29.24l-30.34 0 0 247.98zm661.38 540.8l0 -943.11 201.81 0 0 943.11 -201.81 0zm964.97 -358.78l-105.74 -304.69c-2.86,-9.02 -6.81,-24.62 -11.43,-46.39 -4.84,-21.98 -9.67,-48.8 -14.95,-80.68 -5.5,30.56 -10.99,58.04 -16.05,82.22 -5.05,24.4 -9.01,40.45 -11.65,48.59l-101.78 300.95 261.6 0zm-600.6 358.78l359 -943.11 230.61 0 364.05 943.11 -229.29 0 -76.72 -200.49 -365.37 0 -65.73 200.49 -216.55 0zm1506.88 -233.47l0 -162.24 360.1 0 0 162.24 -360.1 0zm1227.46 63.32l112.12 0c105.52,0 182.69,-23.97 230.83,-72.11 48.37,-48.15 72.55,-124.21 72.55,-228.63 0,-103.99 -24.18,-180.05 -72.55,-228.2 -48.14,-48.36 -125.31,-72.54 -230.83,-72.54l-112.12 0 0 601.48zm-201.81 170.15l0 -943.11 257.21 0c101.35,0 181.15,7.04 239.41,21.33 58.47,14.07 109.7,37.81 153.88,70.79 57.16,42.42 100.47,96.07 129.71,160.7 29.46,64.63 44.19,138.28 44.19,220.72 0,83.75 -14.95,157.84 -45.07,222.47 -30.12,64.63 -74.09,118.05 -131.9,160.04 -43.09,31 -90.8,53.2 -143.34,66.83 -52.54,13.42 -129.48,20.23 -230.83,20.23l-71.45 0 -201.81 0zm1053.13 0l0 -943.11 555.31 0 0 170.16 -353.5 0 0 193.9 353.5 0 0 171.47 -353.5 0 0 236.11 353.5 0 0 171.47 -555.31 0zm752.18 -119.81l112.33 -126.85c14.29,34.74 36.94,62.22 68.37,82.22 31.22,20.01 66.4,29.9 105.53,29.9 47.04,0 84.41,-11.21 111.89,-33.42 27.48,-22.42 41.11,-52.54 41.11,-90.35 0,-44.63 -45.72,-89.03 -136.96,-133.44 -29.45,-14.07 -52.98,-25.72 -70.12,-34.74 -82.44,-42.86 -139.6,-84.85 -171.26,-125.96 -31.87,-40.89 -47.7,-89.7 -47.7,-146.42 0,-77.82 30.77,-141.57 92.33,-191.7 61.55,-49.9 141.58,-74.96 239.84,-74.96 56.94,0 106.18,9.89 147.73,29.9 41.33,20 78.05,51.22 109.7,93.65l-119.15 113.88c-14.07,-27.48 -32.97,-47.93 -56.28,-61.56 -23.3,-13.41 -51.44,-20.22 -84.42,-20.22 -40.01,0 -72.1,9.89 -96.5,29.89 -24.41,20.01 -36.72,45.95 -36.72,77.61 0,49.9 48.37,95.41 145.32,136.74 19.34,8.13 34.07,14.51 44.4,19.34 79.8,36.49 138.94,77.6 177.41,123.55 38.47,45.95 57.6,98.49 57.6,157.19 0,88.59 -30.12,159.16 -90.57,211.7 -60.24,52.54 -141.36,78.92 -243.14,78.92 -72.11,0 -133.89,-12.53 -185.55,-37.37 -51.44,-24.84 -89.91,-60.68 -115.19,-107.5zm1061.04 -50.34l112.12 0c105.52,0 182.69,-23.97 230.83,-72.11 48.37,-48.15 72.55,-124.21 72.55,-228.63 0,-103.99 -24.18,-180.05 -72.55,-228.2 -48.14,-48.36 -125.31,-72.54 -230.83,-72.54l-112.12 0 0 601.48zm-201.81 170.15l0 -943.11 257.21 0c101.35,0 181.15,7.04 239.41,21.33 58.47,14.07 109.7,37.81 153.88,70.79 57.16,42.42 100.47,96.07 129.71,160.7 29.46,64.63 44.19,138.28 44.19,220.72 0,83.75 -14.95,157.84 -45.07,222.47 -30.12,64.63 -74.09,118.05 -131.9,160.04 -43.09,31 -90.8,53.2 -143.34,66.83 -52.54,13.42 -129.48,20.23 -230.83,20.23l-71.45 0 -201.81 0zm1053.13 0l0 -943.11 555.31 0 0 170.16 -353.5 0 0 193.9 353.5 0 0 171.47 -353.5 0 0 236.11 353.5 0 0 171.47 -555.31 0zm1442.25 0l0 -775.59 -188.62 0 79.14 -158.28 299.42 0 0 933.87 -189.94 0zm1089.84 -637.97c0,-45.95 -12.97,-82.44 -38.69,-109.26 -25.72,-26.82 -60.89,-40.23 -105.08,-40.23 -42.87,0 -77.6,13.85 -104.2,41.55 -26.38,27.7 -39.57,63.53 -39.57,107.94 0,47.04 12.97,84.2 38.91,111.02 26.16,26.82 62.21,40.23 108.82,40.23 41.11,0 74.74,-14.07 100.9,-42.21 25.94,-28.14 38.91,-64.41 38.91,-109.04zm-79.36 272.6c-18.02,9.45 -36.49,16.49 -55.62,20.88 -19.12,4.62 -40.89,6.82 -65.51,6.82 -80.24,0 -145.75,-27.26 -196.75,-81.78 -50.79,-54.52 -76.29,-124.43 -76.29,-209.73 0,-96.95 31,-175.21 92.77,-234.34 61.78,-59.14 143.78,-88.82 246,-88.82 96.51,0 173.9,29.46 232.15,88.16 58.26,58.91 87.28,136.73 87.28,233.68 0,57.16 -13.19,119.6 -39.57,187.31 -26.38,67.93 -65.95,141.35 -118.71,220.27l-148.84 222.92 -226.21 0 269.3 -365.37zm947.61 -272.6c0,-45.95 -12.97,-82.44 -38.69,-109.26 -25.72,-26.82 -60.89,-40.23 -105.08,-40.23 -42.87,0 -77.6,13.85 -104.2,41.55 -26.38,27.7 -39.57,63.53 -39.57,107.94 0,47.04 12.97,84.2 38.91,111.02 26.16,26.82 62.21,40.23 108.82,40.23 41.11,0 74.74,-14.07 100.9,-42.21 25.94,-28.14 38.91,-64.41 38.91,-109.04zm-79.36 272.6c-18.02,9.45 -36.49,16.49 -55.62,20.88 -19.12,4.62 -40.89,6.82 -65.51,6.82 -80.24,0 -145.75,-27.26 -196.75,-81.78 -50.79,-54.52 -76.29,-124.43 -76.29,-209.73 0,-96.95 31,-175.21 92.77,-234.34 61.78,-59.14 143.78,-88.82 246,-88.82 96.51,0 173.9,29.46 232.15,88.16 58.26,58.91 87.28,136.73 87.28,233.68 0,57.16 -13.19,119.6 -39.57,187.31 -26.38,67.93 -65.95,141.35 -118.71,220.27l-148.84 222.92 -226.21 0 269.3 -365.37zm1149.43 -98.93c0,153.67 -30.78,273.7 -92.12,359.88 -61.33,86.39 -146.63,129.48 -255.67,129.48 -110.14,0 -195.65,-42.87 -256.77,-128.38 -61.33,-85.74 -91.89,-205.99 -91.89,-360.98 0,-152.79 30.78,-272.38 92.55,-358.55 61.55,-86.4 146.85,-129.49 256.11,-129.49 110.36,0 195.88,42.65 256.55,127.73 60.9,85.29 91.24,205.33 91.24,360.31zm-501.24 0.88c0,101.35 13.2,179.17 39.36,233.25 26.16,54.08 63.75,81.12 112.77,81.12 50.13,0 88.16,-26.82 113.88,-80.46 25.72,-53.64 38.69,-132.56 38.69,-236.33 0,-102.66 -12.97,-180.7 -38.69,-233.91 -25.72,-53.2 -63.31,-79.8 -112.78,-79.8 -49.68,0 -87.71,27.04 -113.87,81.12 -26.16,54.08 -39.36,132.57 -39.36,235.01z"/>
  <polygon class="fil0" points="4061.7,1511.72 4885.14,2540.98 4644.95,1511.72 "/>
  <polygon class="fil0" points="5845.8,1511.72 5022.35,2540.98 5262.54,1511.72 "/>
  <polygon class="fil0" points="4953.75,2540.98 5176.74,1511.72 4730.74,1511.72 "/>
  <polygon class="fil0" points="4061.7,1434.92 4583.71,1434.92 4322.7,1069.48 "/>
  <polygon class="fil0" points="5323.79,1434.92 5845.8,1434.92 5584.79,1069.48 "/>
  <polygon class="fil0" points="5511.28,1069.48 4989.27,1069.48 5250.27,1443.08 "/>
  <polygon class="fil0" points="4918.23,1069.48 4396.22,1069.48 4657.23,1443.08 "/>
  <polygon class="fil0" points="4953.76,1134.28 5176.75,1443.08 4730.75,1443.08 "/>
  <path class="fil0" d="M4964.63 0c2741.9,0 4964.65,2222.74 4964.65,4964.64 0,2741.89 -2222.75,4964.63 -4964.65,4964.63 -2741.89,0 -4964.63,-2222.74 -4964.63,-4964.63 0,-2741.9 2222.74,-4964.64 4964.63,-4964.64zm0 713.35c2347.93,0 4251.29,1903.36 4251.29,4251.29 0,2347.92 -1903.36,4251.28 -4251.29,4251.28 -2347.92,0 -4251.28,-1903.36 -4251.28,-4251.28 0,-2347.93 1903.36,-4251.29 4251.28,-4251.29z"/>
  <polygon class="fil2" points="33615.4,2227.63 34173.14,1081.75 35226.06,1081.75 35783.8,2227.63 35302.4,2227.63 34699.6,1607.09 34096.81,2227.63 "/>
  <path class="fil1" d="M12393.84 7342.64l2032.01 0c1099.51,0 1663.18,-480.17 1663.18,-1363.95 0,-584.55 -340.99,-1016 -988.17,-1203.9 501.05,-222.68 723.73,-535.83 723.73,-1029.92 0,-793.31 -508,-1231.73 -1489.21,-1231.73l-1941.54 0 0 591.51 570.63 0 0 3611.69 -570.63 0 0 626.3zm1259.56 -2804.45l0 -1433.54 549.76 0c619.35,0 932.5,271.4 932.5,737.65 0,459.29 -327.07,695.89 -974.25,695.89l-508.01 0zm0 2199.02l0 -1635.35 570.64 0c765.48,0 1148.22,313.16 1148.22,821.16 0,508 -368.82,814.19 -1043.84,814.19l-675.02 0zm4932.28 -4224.07l-1837.16 0 0 591.51 570.63 0 0 3611.69 -570.63 0 0 626.3 1837.16 0 0 -626.3 -577.6 0 0 -3611.69 577.6 0 0 -591.51zm464.64 4829.5l2032.01 0c1099.51,0 1663.18,-480.17 1663.18,-1363.95 0,-584.55 -340.99,-1016 -988.17,-1203.9 501.05,-222.68 723.73,-535.83 723.73,-1029.92 0,-793.31 -508,-1231.73 -1489.21,-1231.73l-1941.54 0 0 591.51 570.63 0 0 3611.69 -570.63 0 0 626.3zm1259.56 -2804.45l0 -1433.54 549.76 0c619.35,0 932.5,271.4 932.5,737.65 0,459.29 -327.07,695.89 -974.25,695.89l-508.01 0zm0 2199.02l0 -1635.35 570.64 0c765.48,0 1148.22,313.16 1148.22,821.16 0,508 -368.82,814.19 -1043.84,814.19l-675.02 0zm6456.28 -20.87l-2101.6 0 0 -1565.76 1878.92 0 0 -577.59 -1878.92 0 0 -1468.34 2101.6 0 0 842.03 584.55 0 0 -1433.54 -3945.71 0 0 591.51 570.63 0 0 3611.69 -570.63 0 0 626.3 3945.71 0 0 -1544.88 -584.55 0 0 918.58zm3088.16 -4203.2l-1837.16 0 0 591.51 570.63 0 0 3611.69 -570.63 0 0 626.3 3583.85 0 0 -2261.65 -584.55 0 0 1635.35 -1739.74 0 0 -3611.69 577.6 0 0 -591.51zm4848.76 -83.5c-1377.87,0 -2421.71,1016 -2421.71,2505.21 0,1468.33 1002.09,2505.22 2421.71,2505.22 1419.62,0 2414.75,-1036.89 2414.75,-2505.22 0,-1468.33 -981.21,-2505.21 -2414.75,-2505.21zm1670.14 2498.25c0,1141.27 -737.64,1864.99 -1677.1,1864.99 -939.45,0 -1670.14,-723.72 -1670.14,-1864.99 0,-1134.3 744.6,-1851.07 1670.14,-1851.07 960.33,0 1677.1,737.64 1677.1,1851.07z"/>
 </g>
</svg>
