<?xml version="1.0" standalone="no"?>
<!DOCTYPE svg PUBLIC "-//W3C//DTD SVG 20010904//EN"
 "http://www.w3.org/TR/2001/REC-SVG-20010904/DTD/svg10.dtd">
<svg version="1.0" xmlns="http://www.w3.org/2000/svg"
 width="2489.000000pt" height="281.000000pt" viewBox="0 0 2489.000000 281.000000"
 preserveAspectRatio="xMidYMid meet">

<g transform="translate(0.000000,281.000000) scale(0.100000,-0.100000)"
fill="#000000" stroke="none">
<path d="M11849 2158 c-67 -45 -110 -191 -65 -224 46 -33 86 -7 101 66 15 75
-22 70 561 70 l524 0 14 -22 c8 -13 17 -39 21 -58 14 -68 64 -91 105 -50 16
16 19 29 15 58 -11 64 -34 118 -66 148 l-30 29 -573 3 -572 2 -35 -22z"/>
<path d="M21909 2098 c-37 -12 -55 -57 -40 -99 6 -17 8 -35 5 -40 -3 -5 -27
-9 -53 -9 -34 0 -71 -10 -124 -35 -88 -40 -110 -67 -153 -188 -22 -64 -25 -82
-16 -102 16 -35 32 -31 33 8 1 17 3 24 6 15 2 -10 9 -18 15 -18 7 0 8 15 4 41
-6 35 -2 48 29 98 34 54 40 59 95 74 78 22 89 21 99 -5 11 -29 8 -32 -17 -17
-11 7 -27 9 -37 5 -15 -6 -17 -16 -13 -84 5 -68 3 -82 -19 -125 -19 -36 -24
-55 -19 -82 l7 -35 -38 0 c-21 0 -63 -6 -93 -14 -49 -13 -61 -13 -103 1 -40
13 -54 14 -95 2 -39 -10 -64 -29 -141 -107 -108 -109 -152 -133 -259 -140 -59
-4 -71 -7 -60 -17 22 -21 78 -35 135 -35 60 0 63 -13 9 -35 -27 -12 -28 -15
-13 -21 30 -11 123 15 162 46 21 16 65 64 100 107 64 79 115 132 115 119 0 -4
-9 -24 -20 -46 -15 -30 -20 -59 -20 -121 0 -89 -17 -140 -56 -165 -17 -11 -27
-35 -39 -92 -9 -42 -29 -99 -43 -125 -25 -46 -28 -49 -60 -44 -29 5 -35 2 -52
-26 -29 -46 -26 -77 5 -77 71 0 141 64 210 190 42 77 61 91 138 103 l39 6 -26
-24 c-14 -13 -26 -33 -26 -45 0 -11 -9 -39 -20 -60 -18 -35 -25 -40 -54 -40
-29 0 -36 -5 -45 -31 -18 -52 -14 -79 10 -79 58 0 122 71 186 207 29 63 48 89
82 115 25 18 60 59 78 90 19 33 47 65 63 73 35 18 48 19 32 3 -17 -17 -15 -28
6 -28 11 0 66 -16 123 -36 77 -26 114 -34 141 -30 55 9 149 48 145 60 -2 6 -8
22 -12 36 l-8 25 26 -27 c36 -39 69 -44 125 -20 48 21 169 48 177 40 3 -2 -17
-26 -44 -52 -41 -40 -57 -49 -95 -53 -39 -5 -49 -11 -61 -34 -22 -42 -19 -69
8 -69 28 0 84 33 181 104 58 42 74 60 69 73 -6 14 -2 14 23 -4 48 -35 72 -66
83 -110 13 -47 33 -63 81 -63 30 0 32 2 25 27 -8 35 -86 131 -168 211 -57 55
-70 62 -105 62 -21 0 -73 3 -114 6 l-74 7 -23 41 -24 41 32 -29 c35 -33 35
-32 20 49 -14 79 -6 115 41 168 22 25 40 52 40 61 0 34 -40 14 -125 -63 -41
-38 -31 -18 19 37 27 30 105 79 110 70 1 -2 8 -16 16 -31 18 -35 69 -67 108
-67 29 0 82 -41 82 -62 0 -17 40 -7 54 14 29 40 20 73 -28 114 -24 20 -52 54
-61 75 -10 21 -35 50 -56 65 -32 22 -37 30 -29 45 11 20 -2 35 -21 24 -6 -4
-42 -11 -82 -16 -137 -17 -227 -79 -380 -262 -54 -64 -81 -75 -137 -57 l-38
12 24 61 c13 33 40 80 59 105 19 25 35 57 35 71 0 16 3 21 8 14 9 -14 85 -43
113 -43 31 0 48 41 55 133 l7 87 49 0 c27 0 64 -7 83 -14 l35 -15 0 43 c0 23
-6 51 -14 61 -13 17 -15 17 -61 -16 -41 -30 -54 -34 -102 -32 -37 1 -56 -2
-59 -12 -3 -7 -21 -16 -40 -19 -46 -9 -43 -25 4 -19 54 7 66 -10 50 -76 -13
-58 -18 -59 -95 -15 -49 28 -56 29 -77 8 -18 -17 -21 -8 -6 16 6 10 4 21 -8
35 -9 11 -10 14 -2 8 8 -7 27 -13 42 -13 21 0 28 5 28 19 0 11 4 23 10 26 12
7 2 62 -16 91 -16 26 -41 33 -75 22z"/>
<path d="M16359 2075 c-31 -17 -56 -73 -59 -130 -3 -59 -2 -63 20 -75 36 -19
58 -3 75 53 8 28 21 54 28 59 17 11 919 10 936 -1 7 -5 19 -31 26 -57 9 -39
18 -51 39 -59 21 -7 30 -5 47 12 20 20 20 22 5 84 -12 48 -25 72 -51 97 l-35
32 -502 0 c-416 -1 -508 -3 -529 -15z"/>
<path d="M1655 1941 c-98 -28 -179 -78 -250 -152 -132 -141 -183 -324 -140
-507 99 -420 614 -569 928 -270 22 21 48 40 58 43 26 9 65 79 86 155 24 90 24
300 0 390 -21 75 -59 146 -85 154 -10 4 -43 30 -74 60 -62 60 -171 117 -256
135 -76 16 -198 12 -267 -8z m432 -558 c-2 -16 -4 -5 -4 22 0 28 2 40 4 28 2
-13 2 -35 0 -50z"/>
<path d="M24208 1856 l-98 -51 0 -335 c0 -310 2 -338 20 -378 32 -70 114 -95
254 -76 l46 7 0 68 0 69 -44 0 c-74 0 -76 5 -76 216 l0 184 60 0 60 0 0 80 0
80 -60 0 -59 0 -3 94 -3 94 -97 -52z"/>
<path d="M23785 1851 l-90 -48 0 -334 c0 -314 1 -336 20 -373 31 -62 62 -79
152 -84 43 -2 94 0 113 5 l35 9 3 67 3 67 -41 0 c-81 0 -80 -4 -80 210 l0 189
58 3 57 3 0 75 0 75 -57 3 -58 3 0 89 c0 66 -3 90 -12 90 -7 0 -53 -22 -103
-49z"/>
<path d="M7553 1809 c-101 -19 -192 -82 -224 -154 -23 -50 -24 -136 -3 -182
21 -43 70 -85 165 -138 81 -46 106 -77 95 -118 -14 -59 -135 -75 -261 -36 -37
11 -68 19 -70 17 -3 -4 -35 -144 -35 -156 0 -37 286 -57 387 -27 129 38 202
127 203 244 0 108 -41 157 -209 247 -87 47 -103 97 -41 129 38 20 155 19 210
0 24 -8 44 -14 45 -13 4 6 33 163 31 166 -2 1 -34 9 -72 17 -75 16 -155 18
-221 4z"/>
<path d="M6785 1802 l-60 -3 -104 -271 c-58 -149 -107 -266 -109 -260 -2 6
-23 118 -47 249 -56 307 -31 283 -286 283 -104 0 -189 -3 -189 -7 0 -5 42 -21
93 -37 145 -46 137 -30 236 -424 l84 -333 109 3 109 3 165 394 c90 217 164
398 164 403 0 8 -43 8 -165 0z"/>
<path d="M7046 1793 c-3 -10 -39 -182 -81 -383 -42 -200 -78 -374 -81 -387 -6
-23 -5 -23 94 -23 95 0 100 1 105 23 3 12 40 186 82 387 42 201 78 373 81 383
5 15 -4 17 -95 17 -86 0 -100 -2 -105 -17z"/>
<path d="M8155 1792 c-26 -16 -49 -65 -182 -388 -84 -203 -155 -377 -159 -387
-6 -16 2 -17 101 -15 l108 3 20 58 19 57 133 0 133 0 14 -57 14 -58 92 -3 c51
-1 92 1 92 5 0 4 -37 187 -82 406 l-82 397 -96 0 c-74 0 -101 -4 -125 -18z
m109 -344 c16 -73 31 -139 33 -145 4 -10 -17 -13 -87 -13 -50 0 -90 4 -88 9 2
4 25 70 53 145 27 75 52 136 55 136 3 0 18 -60 34 -132z"/>
<path d="M12636 1766 l-26 -25 0 -336 0 -336 25 -25 26 -26 197 4 c178 3 201
5 237 25 84 45 125 112 125 204 0 71 -29 133 -80 169 l-30 22 22 31 c19 26 23
45 23 103 0 60 -4 77 -27 112 -15 22 -49 54 -75 69 -47 27 -53 28 -220 31
l-172 4 -25 -26z m382 -121 c38 -32 46 -65 28 -110 -20 -46 -64 -65 -154 -65
-74 0 -92 -10 -92 -49 0 -49 24 -61 128 -61 109 0 154 -16 178 -63 21 -40 11
-87 -27 -123 l-30 -29 -162 0 -162 0 -3 263 -2 262 134 0 c129 0 136 -1 164
-25z"/>
<path d="M11751 1766 c-19 -22 -107 -694 -94 -714 15 -24 75 -27 95 -5 11 13
24 90 47 278 17 143 31 264 31 270 0 39 97 -195 166 -399 39 -114 55 -136 98
-136 47 1 64 20 95 111 74 217 169 453 171 424 0 -5 15 -129 34 -274 36 -285
38 -291 96 -291 35 0 50 17 50 60 0 19 -18 177 -40 350 -45 346 -43 340 -113
340 -30 0 -45 -7 -67 -30 -26 -27 -92 -174 -176 -390 -20 -52 -40 -99 -44
-103 -4 -5 -13 8 -20 30 -28 86 -154 391 -178 430 -15 23 -37 47 -50 52 -33
15 -87 14 -101 -3z"/>
<path d="M16258 1726 c-20 -19 -95 -623 -80 -638 17 -17 73 -14 87 5 7 9 15
53 18 96 4 44 16 150 29 236 l22 156 19 -36 c10 -20 47 -116 83 -213 73 -199
84 -219 119 -228 50 -13 68 13 133 193 33 92 73 195 88 228 l28 60 12 -90 c7
-49 18 -142 24 -204 18 -180 22 -194 53 -209 28 -14 60 -5 69 20 9 22 -69 607
-82 623 -16 20 -70 19 -98 -1 -30 -21 -60 -82 -138 -281 -36 -92 -67 -169 -69
-172 -3 -2 -9 9 -15 25 -6 16 -20 47 -31 68 -12 22 -38 84 -60 139 -54 135
-95 214 -118 227 -28 14 -77 12 -93 -4z"/>
<path d="M17053 1725 c-23 -16 -23 -16 -23 -324 0 -255 2 -311 14 -320 10 -9
69 -11 204 -9 l190 3 43 30 c55 39 84 94 83 160 -1 60 -21 101 -67 142 l-33
29 19 26 c11 15 22 49 25 77 6 71 -25 132 -86 169 -45 26 -54 27 -197 30 -126
3 -154 1 -172 -13z m310 -87 c33 -17 46 -39 47 -76 0 -66 -37 -92 -134 -92
-58 0 -76 -12 -76 -50 0 -42 17 -50 108 -50 88 0 116 -9 144 -44 38 -46 9
-127 -52 -143 -16 -5 -86 -7 -155 -5 l-125 3 0 235 0 234 111 0 c65 0 119 -5
132 -12z"/>
<path d="M23282 1714 c-76 -20 -104 -37 -155 -94 -62 -69 -82 -130 -82 -250 0
-122 20 -182 86 -254 72 -79 127 -100 259 -101 97 0 210 18 210 33 -1 16 -28
133 -31 136 -2 2 -35 -3 -74 -11 -163 -34 -240 31 -240 202 0 103 26 157 88
186 50 22 82 23 162 5 33 -8 61 -13 64 -11 6 6 32 138 28 142 -2 2 -39 10 -81
18 -95 18 -164 18 -234 -1z"/>
<path d="M17834 1620 c-14 -14 -3 -84 37 -250 34 -141 48 -170 84 -170 32 0
48 27 75 125 12 44 26 96 32 115 l11 34 14 -44 c7 -25 20 -74 28 -110 20 -85
33 -117 52 -124 23 -9 58 3 71 25 16 24 84 368 78 386 -3 7 -17 13 -30 13 -21
0 -27 -7 -34 -37 -5 -21 -21 -91 -37 -156 -15 -64 -30 -119 -35 -122 -4 -2
-19 57 -34 132 -34 166 -40 183 -66 183 -24 0 -34 -21 -55 -115 -28 -124 -56
-210 -65 -194 -4 7 -17 57 -29 109 -37 161 -44 185 -54 198 -12 15 -29 16 -43
2z"/>
<path d="M18456 1608 c-32 -49 -126 -339 -126 -388 0 -17 5 -21 27 -18 24 3
30 11 47 66 l20 62 81 0 80 0 20 -62 c16 -50 25 -64 43 -66 13 -2 24 3 28 12
5 13 -77 250 -128 368 -18 41 -24 48 -49 48 -19 0 -34 -8 -43 -22z m52 -226
c-33 -2 -62 -1 -65 1 -2 3 10 42 28 87 l33 82 32 -83 32 -84 -60 -3z"/>
<path d="M18687 1624 c-4 -4 -7 -16 -7 -26 0 -19 55 -136 91 -194 12 -21 16
-35 9 -39 -5 -3 -10 -42 -10 -85 0 -70 2 -79 20 -85 33 -11 40 3 40 83 0 61 4
83 21 107 39 57 99 185 99 210 0 18 -5 25 -19 25 -15 0 -31 -23 -65 -95 -24
-52 -49 -95 -53 -95 -5 0 -27 44 -50 98 -38 89 -58 114 -76 96z"/>
<path d="M16167 935 c-22 -21 -31 -89 -18 -128 7 -19 23 -45 37 -58 l26 -24
657 -3 657 -2 35 23 c41 28 62 82 53 138 -11 65 -52 89 -89 53 -12 -12 -15
-27 -10 -54 4 -26 2 -40 -8 -48 -11 -9 -169 -12 -633 -10 l-619 3 -5 53 c-6
53 -19 72 -52 72 -9 0 -23 -7 -31 -15z"/>
<path d="M11637 877 c-24 -17 -38 -92 -27 -143 6 -25 22 -51 44 -71 l36 -33
747 0 c719 0 749 1 779 19 64 39 85 181 33 224 -42 34 -94 -4 -86 -64 10 -75
67 -69 -718 -69 -785 0 -728 -6 -718 69 3 21 -1 43 -9 53 -18 24 -59 32 -81
15z"/>
</g>
</svg>
