<?xml version="1.0" encoding="UTF-8"?>
<!DOCTYPE svg PUBLIC "-//W3C//DTD SVG 1.1//EN" "http://www.w3.org/Graphics/SVG/1.1/DTD/svg11.dtd">
<!-- Creator: CorelDRAW 2021.5 -->
<svg xmlns="http://www.w3.org/2000/svg" xml:space="preserve" width="3000px" height="281px" version="1.1" style="shape-rendering:geometricPrecision; text-rendering:geometricPrecision; image-rendering:optimizeQuality; fill-rule:evenodd; clip-rule:evenodd"
viewBox="0 0 2356.21 220.35"
 xmlns:xlink="http://www.w3.org/1999/xlink"
 xmlns:xodm="http://www.corel.com/coreldraw/odm/2003">
 <defs>
  <style type="text/css">
   <![CDATA[
    .fil11 {fill:black}
    .fil10 {fill:#DE0024}
    .fil6 {fill:black;fill-rule:nonzero}
    .fil4 {fill:#122A96;fill-rule:nonzero}
    .fil9 {fill:#179BD7;fill-rule:nonzero}
    .fil8 {fill:#253B80;fill-rule:nonzero}
    .fil5 {fill:#2765AF;fill-rule:nonzero}
    .fil7 {fill:#D72027;fill-rule:nonzero}
    .fil3 {fill:#EB001B;fill-rule:nonzero}
    .fil1 {fill:#F79E1B;fill-rule:nonzero}
    .fil2 {fill:#FF5F00;fill-rule:nonzero}
    .fil0 {fill:white;fill-rule:nonzero}
   ]]>
  </style>
 </defs>
 <g id="Layer_x0020_1">
  <metadata id="CorelCorpID_0Corel-Layer"/>
  <g id="_2467852443312">
   <path class="fil0" d="M2310.37 0l-256.94 0c-25.55,0 -45.82,20.7 -45.82,45.82l0 128.71c0,25.55 20.7,45.82 45.82,45.82l256.94 0c25.57,0 45.84,-20.71 45.84,-45.82l0 -128.69c0,-25.14 -20.73,-45.84 -45.84,-45.84l0 0z"/>
   <path class="fil0" d="M303.21 0l-256.93 0c-25.57,0 -46.28,20.7 -46.28,45.82l0 128.71c0,25.11 20.71,45.82 46.28,45.82l256.93 0c25.55,0 45.82,-20.71 45.82,-45.82l0 -128.71c0,-25.12 -20.7,-45.82 -45.82,-45.82z"/>
   <path class="fil1" d="M250.77 110.18c0,24.24 -19.41,43.62 -43.64,43.62 -12.33,0 -24.23,-5.28 -32.6,-14.54 14.54,-16.31 14.54,-40.97 0,-57.72 15.85,-18.08 43.61,-19.84 61.68,-3.98 9.26,8.37 14.56,20.27 14.56,32.62l0 0z"/>
   <ellipse class="fil2" cx="174.53" cy="110.18" rx="11.01" ry="28.64"/>
   <path class="fil3" d="M163.49 110.18c0,10.56 3.98,20.71 11.04,28.65 -15.88,18.06 -43.64,19.82 -61.71,3.96 -18.06,-15.86 -19.83,-43.64 -3.97,-61.7 15.87,-18.07 43.63,-19.84 61.7,-3.96 1.32,1.32 2.64,2.64 3.98,3.96 -7.06,8.37 -11.04,18.52 -11.04,29.09l0 0z"/>
   <path class="fil0" d="M447.71 0l256.93 0c25.56,0 45.83,20.7 45.83,45.82l0 128.71c0,25.55 -20.71,45.82 -45.83,45.82l-256.93 0c-25.12,0 -45.84,-20.71 -45.84,-45.82l0 -128.71c0,-25.12 20.72,-45.82 45.84,-45.82z"/>
   <path class="fil4" d="M546.43 78.45l-26.46 63.45 -17.18 0 -12.78 -50.23c0,-2.21 -1.75,-4.42 -3.96,-5.74 -5.28,-2.64 -10.58,-4.41 -15.86,-5.28l0 -1.77 27.32 0c3.96,0 7.06,2.64 7.49,6.62l6.6 36.58 16.75 -43.2 18.08 -0.43 0 0zm67.42 42.75c0,-16.75 -22.92,-17.64 -22.92,-25.12 0,-2.21 2.21,-4.85 7.06,-5.3 5.28,-0.43 11.01,0.45 15.86,2.64l2.65 -13.22c-4.86,-1.75 -10.14,-2.64 -15.42,-2.64 -15.88,0 -27.33,8.37 -27.33,20.73 0,9.23 7.92,14.08 14.11,17.17 6.17,3.1 8.37,5.28 8.37,7.94 0,4.4 -4.86,6.17 -9.71,6.17 -5.71,0 -11.45,-1.32 -16.74,-3.98l-3.08 13.67c5.74,2.21 11.9,3.53 18.5,3.09 17.2,0.44 28.65,-7.93 28.65,-21.15l0 0 0 0zm42.31 20.7l14.97 0 -13.22 -63.45 -13.65 0c-3.09,0 -5.73,1.75 -7.05,4.84l-24.23 58.61 17.18 0 3.09 -9.26 20.71 0 2.2 9.26 0 0zm-18.52 -22.48l8.83 -23.79 5.28 23.79 -14.11 0zm-68.3 -40.97l-13.22 63.45 -15.86 0 13.22 -63.45 15.86 0z"/>
   <path class="fil0" d="M849.15 0l256.91 0c25.57,0 45.84,20.7 45.84,45.82l0 128.71c0,25.55 -20.7,45.82 -45.84,45.82l-256.91 0c-25.57,0 -45.85,-20.71 -45.85,-45.82l0 -128.71c0,-25.12 20.28,-45.82 45.85,-45.82z"/>
   <path class="fil5" d="M921.41 156.01l-0.44 3.09c0,1.75 0.89,3.07 2.64,3.07l107.53 0c1.77,0 3.09,-1.32 2.66,-3.07l-0.45 -3.09c-0.44,-2.64 1.77,-4.85 3.98,-5.28 2.63,-0.46 4.84,1.75 5.27,3.96l0.44 3.09c0.88,7.03 -3.07,13.65 -10.56,13.65l-110.62 0c-7.05,0 -11.46,-6.16 -10.58,-13.65l0.44 -3.09c0.45,-2.64 2.63,-4.42 5.29,-3.96 3.08,0 4.85,2.64 4.4,5.28z"/>
   <path class="fil6" d="M1033.8 97.4c0,4.39 -1.77,7.05 -3.98,9.69l-0.43 0.43 0.43 0c5.3,3.1 8.83,7.94 8.83,14.56 0.43,9.7 -7.94,18.07 -17.64,18.07l-26 0c-2.64,0 -4.41,-2.21 -4.41,-4.85l0 -50.25c0,-2.64 2.2,-4.85 4.41,-4.85l21.59 0c9.26,0 17.2,7.05 17.2,17.2l0 0 0 0zm-12.79 33.49c5.28,0 9.26,-3.96 9.26,-8.81 0,-5.3 -4.84,-8.37 -10.14,-8.37l-10.58 0c-2.19,0 -4.4,-1.77 -4.4,-4.41 0,-2.64 1.76,-4.42 4.4,-4.42l7.05 0c4.85,0 8.37,-3.07 8.83,-7.48 0.43,-4.85 -3.98,-8.37 -8.83,-8.37l-17.18 0 0 41.86 21.59 0 0 0z"/>
   <path class="fil6" d="M950.05 122.95l0 0 0 0c1.32,-3.53 3.1,-7.05 4.42,-11.01 1.77,-4.42 3.09,-8.38 4.84,-11.9 1.77,-3.96 3.09,-7.49 4.41,-10.58 1.32,-3.07 2.64,-5.28 3.53,-6.17 1.32,-1.77 3.07,-2.64 5.73,-2.64l0.87 0c1.32,0 2.66,0.44 3.53,0.87 0.88,0.89 1.32,1.34 1.32,2.21l6.62 52.01c0,1.32 -0.44,2.2 -1.32,3.09 -0.89,0.87 -1.78,0.87 -3.1,0.87 -1.32,0 -2.64,-0.44 -3.52,-0.87 -0.87,-0.45 -1.32,-1.34 -1.76,-2.66 -0.45,-1.75 -0.45,-3.53 -0.45,-5.71 -0.43,-2.21 -1.32,-11.04 -1.75,-13.68 -0.44,-2.2 -2.21,-17.17 -2.64,-22.47l0 -0.44 -2.21 4.42c-0.89,1.75 -1.32,3.52 -2.21,5.71 -0.88,2.21 -1.75,4.41 -2.64,7.05 -0.88,2.21 -5.3,14.11 -5.3,14.11 -0.43,0.88 -1.31,3.09 -1.75,5.3 -0.89,1.75 -1.32,3.96 -1.32,3.96 -0.88,1.75 -3.09,3.07 -5.3,3.07 -2.64,0 -4.39,-1.32 -5.28,-3.07 0,-0.44 -0.88,-2.21 -1.32,-3.96 -0.88,-2.21 -1.32,-3.98 -1.77,-5.3 0,0 -3.96,-11.9 -5.28,-14.11 -0.89,-2.2 -1.77,-4.84 -2.64,-7.05 -0.89,-2.19 -1.77,-3.96 -2.21,-5.71l-2.2 -4.42 0 0.44c-0.44,5.3 -2.64,19.83 -2.64,22.47 -0.46,2.21 -1.32,11.47 -1.78,13.68 0,2.18 -0.43,3.96 -0.43,5.71 0,0.89 -0.43,1.77 -1.75,2.66 -0.89,0.43 -1.78,0.87 -3.53,0.87 -1.34,0 -2.66,-0.44 -3.09,-0.87 -0.89,-0.89 -1.32,-1.77 -1.32,-3.09l7.05 -52.01c0,-0.87 0.43,-1.76 1.32,-2.21 0.89,-0.87 1.75,-0.87 3.53,-0.87l0.86 0c2.21,0 4.42,0.87 5.74,2.64 0.88,1.32 2.2,3.1 3.52,6.17 1.32,3.09 3.1,6.62 4.42,10.58 1.75,3.96 3.09,7.94 4.84,11.9 1.32,3.96 2.64,7.48 3.96,11.01l0 0z"/>
   <path class="fil5" d="M936.83 48.92l81.54 0c7.49,0 11.45,5.73 12.34,13.22l0.43 2.63c0.45,2.66 -1.75,4.85 -4.39,5.3 -2.64,0.44 -4.85,-1.77 -5.3,-4.41l-0.44 -2.2c-0.43,-3.08 -1.75,-5.28 -4.41,-5.28l-78.45 0c-3.07,0 -3.96,2.2 -4.39,5.28l-0.45 2.2c-0.44,2.64 -2.64,4.41 -5.28,4.41 -2.64,-0.45 -4.42,-2.64 -4.42,-5.3l0.46 -2.63c1.32,-7.49 5.28,-13.22 12.76,-13.22l0 0z"/>
   <path class="fil0" d="M1250.56 0l256.94 0c25.57,0 45.84,20.7 45.84,45.82l0 128.71c0,25.55 -20.73,45.82 -45.84,45.82l-256.94 0c-25.55,0 -45.82,-20.71 -45.82,-45.82l0 -128.71c0,-25.12 20.27,-45.82 45.82,-45.82z"/>
   <path class="fil7" d="M1276.57 150.27l-0.44 3.1c0,1.32 0.89,2.64 2.21,2.64l94.74 0c1.32,0 2.66,-1.32 2.66,-2.64l-0.45 -3.1c-0.44,-2.2 1.32,-4.39 3.52,-4.39 2.21,-0.45 4.41,1.32 4.41,3.51l0.44 2.66c0.88,6.16 -2.64,11.9 -9.24,11.9l-97.4 0c-6.62,0 -10.15,-5.74 -9.26,-11.9l0.43 -2.66c0.46,-2.19 2.21,-3.96 4.42,-3.51 2.64,0 3.96,2.19 3.96,4.39z"/>
   <path class="fil6" d="M1375.29 98.72c0,3.96 -1.32,6.17 -3.53,8.8l-0.43 0.46 0.43 0c4.41,2.64 7.51,7.05 7.94,12.76 0.43,8.83 -7.05,15.88 -15.43,15.88l-22.91 0c-2.2,0 -3.98,-1.77 -3.98,-3.98l0 -44.5c0,-2.21 1.78,-3.96 3.98,-3.96l18.95 0c7.92,-0.45 14.98,5.73 14.98,14.54l0 0 0 0zm-11.45 29.53c4.39,0 8.37,-3.53 8.37,-7.94 0,-4.41 -4.41,-7.49 -8.82,-7.49l-9.26 0c-2.19,0 -3.53,-1.77 -3.53,-3.98 0,-2.18 1.77,-3.95 3.53,-3.95l6.18 0c3.96,0 7.49,-2.64 7.49,-6.6 0,-4.42 -3.53,-7.51 -7.94,-7.51l-14.97 0 0 37.02 18.95 0.45 0 0z"/>
   <path class="fil6" d="M1301.69 121.2l0 0 0 0c1.33,-3.1 2.65,-6.17 3.97,-9.7 1.32,-3.52 2.64,-7.05 3.96,-10.58 1.32,-3.52 2.64,-6.61 3.96,-9.25 1.32,-2.64 2.21,-4.42 3.1,-5.74 1.32,-1.32 3.09,-2.2 4.84,-2.2l0.89 0c1.32,0 2.21,0.45 3.07,0.88 0.89,0.44 0.89,1.32 1.32,2.21l5.74 45.82c0,1.32 -0.44,2.21 -0.87,2.66 -0.89,0.44 -1.77,0.87 -3.09,0.87 -1.32,0 -2.21,-0.43 -3.1,-0.87 -0.86,-0.45 -1.32,-1.32 -1.32,-2.2 0,-1.32 -0.43,-3.1 -0.43,-5.3 -0.43,-1.76 -1.32,-9.7 -1.32,-11.9 -0.43,-2.19 -1.77,-14.98 -2.64,-19.82l0 -0.45 -1.77 3.97c-0.44,1.32 -1.32,3.08 -2.21,4.85 -0.87,1.75 -1.32,3.96 -2.21,6.17 -0.86,2.2 -4.39,12.33 -4.39,12.33 -0.45,0.89 -0.89,2.64 -1.77,4.41 -0.44,1.76 -1.32,3.53 -1.32,3.53 -0.89,1.75 -2.64,3.09 -4.85,3.09 -2.2,0 -3.96,-1.34 -4.84,-3.09 0,-0.43 -0.89,-1.77 -1.32,-3.53 -0.44,-1.77 -1.32,-3.52 -1.76,-4.41 0,0 -3.52,-10.58 -4.41,-12.33 -0.89,-2.21 -1.32,-3.96 -2.21,-6.17 -0.88,-1.77 -1.32,-3.53 -2.2,-4.85l-1.76 -3.97 0 0.45c-0.45,4.84 -2.2,17.63 -2.66,19.82 -0.43,2.2 -1.32,10.14 -1.32,11.9 0,1.77 -0.43,3.52 -0.43,5.3 0,0.88 -0.43,1.75 -1.32,2.2 -0.89,0.44 -1.77,0.87 -3.09,0.87 -1.32,0 -2.21,-0.43 -3.08,-0.87 -0.88,-0.88 -0.88,-1.77 -0.88,-2.66l5.73 -45.82c0,-0.89 0.43,-1.32 1.32,-2.21 0.89,-0.43 1.75,-0.88 3.07,-0.88l0.89 0c2.21,0 3.53,0.88 4.85,2.2 0.88,0.89 1.77,3.1 3.09,5.74 1.32,2.64 2.64,5.73 3.96,9.25 1.32,3.53 2.64,7.06 4.41,10.58 2.21,3.53 3.07,7.06 4.39,9.7l0.01 0z"/>
   <path class="fil7" d="M1290.24 55.97l71.83 0c6.62,0 10.14,5.28 11.01,11.9l0.45 2.2c0.44,2.21 -1.32,4.42 -3.52,4.42 -2.21,0.43 -4.42,-1.34 -4.42,-3.53l-0.43 -2.21c-0.45,-2.66 -1.32,-4.41 -3.98,-4.41l-69.19 0c-2.64,0 -3.52,1.77 -3.96,4.41l-0.43 2.21c-0.45,2.19 -2.21,3.96 -4.41,3.53 -2.21,-0.46 -3.96,-2.21 -3.53,-4.42l0.43 -2.2c0,-6.62 3.1,-11.9 10.15,-11.9z"/>
   <path class="fil6" d="M1419.36 104.45c-0.44,1.75 -0.87,3.96 -1.76,6.17 -0.45,2.2 -0.88,4.41 -1.77,6.16 -0.43,2.21 -0.87,3.53 -1.32,5.3 -0.43,1.32 -0.89,2.64 -1.32,3.08 -0.43,0.88 -1.32,1.32 -3.07,1.32 -0.46,0 -0.89,0 -1.34,-0.44 -0.44,0 -1.32,-0.45 -1.76,-1.32 -0.43,-0.45 -0.88,-1.77 -1.32,-3.09 -0.45,-1.75 -0.88,-3.53 -1.32,-5.73 -0.45,-2.19 -0.88,-4.4 -1.77,-6.6 -0.43,-2.21 -0.87,-4.41 -1.32,-6.62 -0.43,-2.21 -0.89,-3.53 -0.89,-5.28 -0.43,-1.32 -0.43,-2.21 -0.43,-2.64l0 -0.45 0 0c0,-0.44 0,-0.87 0.89,-1.32 0.43,-0.44 0.88,-0.44 1.75,-0.44 0.45,0 1.32,0 1.32,0.44 0.45,0.45 0.45,0.88 0.89,1.32 0,0 0,0.45 0.43,1.32 0,0.88 0.45,2.2 0.89,3.52 0.45,1.32 0.45,3.1 0.88,4.85 0.44,1.77 0.89,3.52 1.32,5.73 0.44,1.77 0.89,3.53 1.32,5.3 0.46,1.75 0.89,3.07 1.32,4.39 0.46,-1.32 0.89,-2.64 1.32,-3.96 0.46,-1.32 0.89,-3.09 1.32,-4.84 0.46,-1.78 0.89,-3.1 1.34,-4.85 0.44,-1.77 0.87,-3.09 0.87,-4.41 0.45,-1.32 0.45,-2.64 0.89,-3.53 0.43,-0.88 0.43,-1.75 0.43,-2.2 0,-0.44 0.45,-1.32 0.89,-1.76 0.45,-0.43 0.88,-0.43 1.77,-0.43 0.87,0 1.32,0 1.75,0.43 0.44,0.44 0.89,0.89 0.89,1.32 0.43,1.76 0.88,3.53 1.32,5.73 0.43,2.21 0.89,4.42 1.32,6.6 0.43,2.21 0.88,4.42 1.32,6.19 0.43,2.19 0.89,3.96 1.32,5.71 0.45,-1.32 0.89,-2.64 1.32,-4.39 0.45,-1.77 0.88,-3.53 1.32,-5.3 0.45,-1.75 0.89,-3.53 1.32,-5.28 0.45,-1.77 0.88,-3.53 0.88,-4.84 0.46,-1.32 0.46,-2.66 0.89,-3.53 0,-0.89 0.44,-1.32 0.44,-1.32 0,-0.45 0.45,-1.32 0.88,-1.32 0.44,-0.45 0.89,-0.45 1.32,-0.45 0.45,0 1.32,0 1.77,0.45 0.44,0.43 0.87,0.87 0.87,1.32l0 0c0,0 0,0 0,0.43 0,0.44 0,1.32 -0.43,2.64 -0.44,1.32 -0.44,3.09 -0.89,5.3 -0.43,2.21 -0.87,3.96 -1.32,6.6 -0.43,2.21 -0.89,4.41 -1.32,6.62 -0.43,2.21 -0.88,3.96 -1.32,5.73 -0.43,1.76 -0.89,2.64 -1.32,3.08 -0.43,0.88 -0.89,1.32 -1.77,1.32 -0.44,0 -1.32,0.45 -1.75,0.45l-0.44 0c-0.45,0 -0.45,0 -0.88,0 -0.44,0 -0.44,-0.45 -0.89,-0.45 -0.44,-0.44 -0.44,-0.44 -0.89,-0.89 -0.43,-0.43 -0.86,-1.75 -1.32,-3.07 -0.43,-1.32 -0.86,-3.1 -1.32,-5.3 -0.43,-1.76 -0.86,-3.96 -1.32,-6.17 -1.32,-2.64 -1.75,-4.85 -2.2,-6.6z"/>
   <path class="fil6" d="M1458.58 112.37c-0.89,-2.19 -1.32,-4.39 -2.21,-6.17 -0.86,-1.75 -1.32,-3.52 -2.18,-5.28 0,-0.45 -0.46,-0.88 -0.46,-1.32 0,-0.45 -0.43,-0.88 -0.43,-0.88 0,0 0,0.43 -0.45,0.88 0,0.44 -0.44,0.87 -0.44,1.32 -0.88,1.76 -1.32,3.53 -2.2,5.28 -0.44,1.78 -1.32,3.98 -2.21,6.17l10.58 0 0 0zm-11.9 4.41c-0.43,1.78 -0.89,3.1 -1.32,4.85 -0.43,1.32 -0.89,2.64 -1.32,3.53 -0.43,0.88 -1.32,1.32 -2.21,1.32 -0.88,0 -1.32,0 -1.75,-0.44 -0.45,-0.45 -0.45,-0.88 -0.45,-1.77 0,-0.43 0,-0.43 0,-0.87 0,0 0.45,-0.88 0.45,-2.2 0.43,-1.32 0.87,-2.64 1.32,-4.42 0.43,-1.75 1.32,-3.96 1.75,-6.16 0.89,-2.21 1.32,-4.42 2.21,-6.62 0.89,-2.19 1.32,-3.96 2.21,-5.71 0.88,-1.78 1.32,-3.53 2.2,-4.42 0.44,-0.45 0.44,-0.88 1.32,-1.32 0.44,0 1.32,-0.45 1.76,-0.45 0.88,0 1.32,0 1.77,0.45 0.43,0.44 0.89,0.87 1.32,1.32 0.43,0.89 0.89,2.64 1.75,4.42 0.89,1.75 1.34,3.52 2.21,5.71 0.89,2.2 1.32,3.98 2.21,6.18 0.88,2.19 1.32,3.96 2.2,5.72 0.44,1.77 1.32,3.52 1.76,4.84 0.45,1.32 0.88,2.21 0.88,2.66 0,0 0,0.44 0,0.87 0,0.45 0,1.32 -0.43,1.77 -0.45,0.44 -0.89,0.44 -1.77,0.44 -0.44,0 -0.87,0 -1.32,-0.44 -0.44,-0.45 -0.44,-0.45 -0.89,-1.32 -0.43,-0.88 -0.87,-2.2 -1.32,-3.52 -0.43,-1.32 -0.87,-3.1 -1.32,-4.85l-13.22 0 0 0.43 0 0zm0 0l0 0 0 0z"/>
   <path class="fil6" d="M1476.21 113.26l-0.43 -0.44c0,0 -0.46,-0.45 -0.46,-0.88 -0.43,-0.89 -0.86,-1.32 -1.75,-2.64 -0.45,-0.89 -1.32,-2.21 -1.77,-3.1 -0.44,-1.32 -1.32,-2.2 -1.76,-3.52 -0.45,-1.32 -0.88,-2.21 -1.32,-3.07 -0.45,-0.89 -0.88,-1.78 -1.32,-2.66 -0.45,-0.87 -0.45,-1.32 -0.45,-1.32l0 -0.44c0,0 0,0 0,-0.43 0,-0.45 0,-1.34 0.45,-1.77 0.44,-0.44 0.87,-0.44 1.76,-0.44 0.88,0 1.32,0 1.32,0.44 0.45,0.43 0.45,0.88 0.45,0.88 0,0 0.43,0.44 0.43,1.32 0.44,0.44 0.44,1.32 0.89,2.21 0.43,0.89 0.87,1.75 1.32,3.07 0.43,0.89 0.87,2.21 1.32,3.09 0.43,0.89 0.89,1.76 1.32,3.1 0.43,0.86 0.89,1.75 1.32,2.18 0.89,-0.86 1.32,-2.18 2.21,-3.95 0.88,-1.33 1.32,-3.1 2.2,-4.42 0.87,-1.32 1.32,-2.64 1.76,-3.96 0.45,-1.32 0.88,-1.75 0.88,-2.2 0,-0.44 0.44,-0.89 0.44,-0.89 0.45,-0.43 0.88,-0.43 1.32,-0.43 0.88,0 1.32,0 1.77,0.43 0.43,0.45 0.43,0.89 0.43,1.77l0 0.44c0,0 0,0 0,0.45 0,0.43 -0.43,0.87 -0.43,1.32 -0.45,0.87 -0.89,1.75 -1.32,2.64 -0.45,0.88 -0.89,2.21 -1.32,3.09 -0.45,1.32 -1.32,2.19 -1.77,3.51 -0.44,1.34 -1.32,2.2 -1.76,3.09 -0.45,0.89 -1.32,1.77 -1.77,2.64 -0.43,0.45 -0.43,0.89 -0.89,1.32l0 11.03c0,0.87 0,1.32 -0.86,1.76 -0.46,0.43 -0.89,0.43 -1.78,0.43 -0.88,0 -1.32,-0.43 -1.75,-0.43 -0.45,-0.44 -0.45,-0.89 -0.45,-1.76l0 -11.46 1.77 0 0 0zm0 0l0 0 0 0z"/>
   <path class="fil0" d="M1908.93 0l-256.93 0c-25.55,0 -45.83,20.7 -45.83,45.82l0 128.71c0,25.55 20.71,45.82 45.83,45.82l256.93 0c25.57,0 45.84,-20.71 45.84,-45.82l0 -128.69c0,-25.14 -20.72,-45.84 -45.84,-45.84l0 0z"/>
   <path class="fil8" d="M1701.37 82.41c-3.53,-3.53 -8.81,-5.28 -13.68,-4.85l-18.49 0c-1.32,0 -2.64,0.89 -2.64,2.21l-8.38 48.48c0,0.87 0.44,1.75 1.32,1.75l0 0 9.26 0c1.32,0 2.19,-0.88 2.64,-1.75l2.21 -13.22c0,-1.32 1.32,-2.21 2.64,-2.21l6.17 0c10.57,1.32 20.27,-6.62 21.59,-17.19 0,-0.44 0,-0.87 0,-1.32 0.88,-3.96 0,-8.38 -2.64,-11.9l0 0zm-11.47 12.78c-0.87,6.62 -6.17,6.62 -11.01,6.62l-2.64 0 1.75 -12.78c0,-0.89 0.89,-1.32 1.78,-1.32l1.31 0c3.53,0 6.6,0 8.38,1.75 0.43,2.21 0.88,3.96 0.43,5.73l0 0z"/>
   <path class="fil8" d="M1744.55 95.19l-9.26 0c-0.87,0 -1.32,0.44 -1.75,1.32l0 2.64 -0.44 -0.86c-2.66,-2.66 -6.62,-4.42 -10.57,-3.98 -10.58,0.45 -18.96,7.94 -20.28,18.51 -0.88,4.85 0.44,10.13 3.53,14.11 3.07,3.07 7.05,4.85 11.45,4.39 4.84,0 9.25,-1.75 12.35,-5.28l0 2.64c0,0.89 0.43,1.78 1.32,1.78l8.37 0c1.32,0 2.64,-0.89 2.64,-2.21l4.85 -31.3c0.43,-0.87 0,-1.76 -0.89,-1.76 -0.87,-0.43 -1.32,-0.43 -1.32,0l0 0zm-22.91 26.44c-2.21,0 -4.41,-0.89 -6.17,-2.21 -1.32,-1.75 -1.77,-4.39 -1.32,-6.6 0.44,-5.3 4.85,-9.26 10.13,-9.26 2.2,0 4.41,0.89 6.16,2.64 1.32,1.78 2.21,3.98 1.78,6.62 -0.89,4.85 -5.74,8.81 -10.58,8.81l0 0z"/>
   <path class="fil8" d="M1792.6 95.19l-9.26 0c-0.89,0 -1.77,0.44 -2.21,1.32l-12.78 18.52 -4.85 -18.08c-0.43,-1.32 -1.32,-1.76 -2.64,-1.76l-9.26 0c-0.88,0 -1.75,0.89 -1.75,1.76l0 0.45 10.13 29.53 -9.26 13.22c-0.44,0.87 -0.44,1.75 0.45,2.21 0.43,0 0.43,0.43 0.89,0.43l9.24 0c0.88,0 1.77,-0.43 2.2,-0.89l30.42 -44.07c0.43,-0.88 0,-1.75 -1.32,-2.64 0.43,0 0.43,0 0,0l0 0z"/>
   <path class="fil9" d="M1836.67 82.41c-3.53,-3.53 -8.83,-5.28 -13.67,-4.85l-18.95 0c-1.32,0 -2.21,0.89 -2.64,2.21l-7.94 48.48c0,0.87 0.45,1.75 1.32,1.75l0 0 9.71 0c0.87,0 1.75,-0.88 1.75,-1.75l2.21 -13.67c0,-1.32 1.32,-2.21 2.64,-2.21l6.16 0c10.58,1.34 20.28,-6.6 21.6,-17.18 0,-0.43 0,-0.43 0,-0.88 0.88,-3.96 0.45,-8.38 -2.19,-11.9zm-11.47 13.22c-0.88,6.62 -6.16,6.62 -11.01,6.62l-2.66 0 2.21 -12.79c0,-0.89 0.88,-1.32 1.77,-1.32l0 0 1.32 0c3.53,0 6.6,0 8.37,1.77 0,1.76 0.44,3.51 0,5.72l0 0 0 0z"/>
   <path class="fil9" d="M1879.4 95.19l-9.24 0c-0.89,0 -1.32,0.44 -1.77,1.32l0 2.64 -0.44 -0.86c-2.64,-2.66 -6.62,-4.42 -10.58,-3.98 -10.57,0.45 -18.95,7.94 -20.27,18.51 -0.88,4.85 0,10.13 3.53,14.11 3.07,3.07 7.05,4.85 11.46,4.39 4.85,0 9.24,-1.75 12.77,-5.28l0 2.64c0,0.89 0.45,1.78 1.32,1.78l0 0 8.37 0c1.34,0 2.21,-0.89 2.66,-2.21l4.4 -31.3c0,-0.87 -0.44,-1.76 -1.32,-1.76 -0.44,0 -0.44,0 -0.89,0l0 0zm-22.91 26.44c-2.21,0 -4.4,-0.89 -6.17,-2.21 -1.32,-1.75 -1.75,-4.39 -1.32,-6.6 0.43,-5.3 4.85,-9.26 10.13,-9.26 3.98,-0.43 7.5,2.64 7.94,6.62 0,0.87 0,1.76 -0.44,2.64 -0.45,5.28 -4.84,8.81 -10.14,8.81l0 0z"/>
   <path class="fil9" d="M1900.56 77.56l-9.26 0c-0.87,0 -1.32,0.45 -1.75,1.32l-7.06 49.8c0,0.89 0.44,1.78 1.32,1.78 0,0 0,0 0.46,0l7.92 0c1.32,0 2.2,-0.89 2.63,-2.21l7.51 -48.92c0,-0.88 -0.89,-1.77 -1.77,-1.77l0 0 0 0z"/>
   <g>
    <path class="fil10" d="M2175.39 124.77zm-29.5 -1.87l29.5 1.87zm-29.5 -1.87c-0.32,-0.41 -0.31,0.66 -0.31,-0.93 0.28,0.38 0.2,-0.35 0.31,0.93zm-60.24 -13.97l-0.32 0.31 0.32 -0.31zm0 0zm64.9 -12.11l-64.9 12.11zm64.9 -12.11zm20.8 -15.84l-20.8 15.84zm20.8 -15.84c1.65,0.04 2.14,0.16 2.17,1.86 -1.54,0 -1.95,-0.18 -2.17,-1.86zm-55.27 -1.86zm0 0zm0 0l-0.62 -0.31 0.62 0.31zm11.49 -2.49l-0.36 -0.6 0.36 0.6zm-0.62 -1.24l0.09 0.09c-0.01,0 -0.13,-0.06 -0.09,-0.09zm-0.63 -14.59l1.56 0 0 0.93c-1.24,-0.1 -1.02,-0.13 -1.56,-0.93zm26.71 -2.49c1.27,0.93 1.24,2.78 1.24,4.97 -1.16,-0.85 -1.24,-2.96 -1.24,-4.97zm-37.57 20.5c-1.57,-0.42 -1.75,-1.33 -2.92,-2.08 -1.15,-0.73 -2.85,-0.36 -3.51,0.62 -1.53,2.27 1.15,11.52 -0.21,13.76 -1.16,1.9 -2.82,3.46 -3,6.95 -0.16,2.97 0.5,2.44 0.94,4.35 -4.58,0 -10.05,0.78 -14.16,2.33 -1.25,0.48 -0.6,0.53 -1.74,-0.06l-1.92 -0.91c-6.26,-2.36 -11.74,0.09 -16.1,4.46 -5.72,5.71 -8.23,11.59 -18.69,14.23 -3.56,0.9 -6.14,0.75 -10.43,0.75 0.29,3.46 12.33,4.86 15.84,4.04 -0.86,1.29 -3.91,2.94 -5.9,3.1 0.78,2.91 9.21,0.53 10.86,-0.32 2.75,-1.43 5.68,-3.92 7.59,-6.37l4.57 -5.68c0.52,-0.65 0.95,-1.3 1.47,-1.95 1.37,-1.71 5.12,-6.24 7.18,-6.79 -1.6,3.02 -4.16,4.94 -4.35,11.79 -0.13,4.66 2.22,10.35 -4.47,15.4 -1.15,0.87 -1.32,0.79 -1.75,2.29 -0.59,2.11 -0.88,4.33 -1.41,6.66 -1.41,6.15 -1.99,6.73 -5.09,11.37 -2.19,0 -3.19,-0.47 -4.97,-0.62 -0.63,0.59 -7.96,11.51 0.9,8.67 5.08,-1.63 6.96,-3.59 9.84,-7.56 2.34,-3.24 4.61,-6.92 6.43,-10.64 1,-2.03 2.16,-3.48 4.69,-4.01 2.11,-0.45 5.38,-1.06 7.64,-1.06 -1.44,1.25 -1.32,0.87 -2.92,1.74 -2.36,1.29 0.14,2.92 -4.03,9.95 -0.76,1.29 -1.2,1.58 -3.21,1.27 -1.6,-0.24 -2.4,-0.44 -3.16,1.05 -1.18,2.31 -1.59,4.55 -1.59,8.04 8.03,0 12.32,-7.89 15.22,-13.66 0.54,-1.07 0.88,-2.05 1.44,-3.21l2.16 -4.98c0.04,-0.09 0.38,-0.84 0.39,-0.86 0.54,-0.92 0.93,-0.84 2.16,-1.57 2.72,-1.59 4.41,-3.21 6.32,-5.79 1.47,-1.99 2.02,-4.11 3.53,-6.1 1.19,-1.56 3.94,-3.38 6.36,-3.58 -0.76,1.13 -1.77,1.59 -2.18,3.11 3.05,0 6.78,1.32 9.05,2.13 9.33,3.36 10.85,5.43 21.69,0.66 0.57,-0.26 1.32,-0.54 1.95,-0.84 0.74,-0.36 1.07,-0.64 1.78,-1.02 -0.89,-1.32 -1.86,-2.76 -1.86,-4.97 0.34,0.39 0.01,-0.01 0.39,0.54 0.21,0.31 0.3,0.47 0.49,0.75 1.04,1.5 2.04,2.3 3.77,3.06 4.36,1.94 4.57,-0.91 13.23,-2.92 1.97,-0.46 5.78,-1.12 7.89,-1.12 -1.26,1.89 -6.55,7.7 -8.73,8.04 -2.51,0.4 -5.63,-0.09 -6.87,1.52 -0.98,1.29 -2.1,4.39 -2.1,6.59 3.65,1.75 9.34,-2.81 12.11,-4.66l7.98 -5.68c0.83,-0.68 1.8,-1.56 2.58,-2.08 -0.44,-0.82 -0.81,-1.35 -1.24,-2.17 1.01,0.26 7.6,4.93 8.31,8.14 0.48,2.12 0.69,4.95 2.24,5.84 1.51,0.86 4.81,1.39 6.84,0.92 0,-2.92 -0.59,-3.88 -1.8,-5.66l-5.11 -6.37c-3.41,-3.58 -4.81,-5.98 -9.37,-9.58 -2.85,-2.25 -1.43,-1.52 -5.64,-2.12l-14.73 -0.8c-0.28,-1.22 -1.02,-2.2 -1.68,-3.29 -0.83,-1.36 -1.79,-2.3 -2.04,-3.23 1.19,0.8 1.52,1.03 2.57,2.09 0.89,0.9 1.38,1.89 2.4,2.57 0,-10.88 -5.02,-11.84 4.11,-21.05 0.78,-0.79 1.51,-1.36 2.1,-2.24 -0.28,-1.19 -0.66,-1.3 -0.93,-2.49 -2.97,0.69 -4.53,2.25 -6.66,3.9 -2.69,2.09 -4.5,4.78 -5.45,5.42 0.79,-2.96 5.44,-7.55 8.59,-9.42l4.14 -2.07c0.22,2.72 3.79,6.61 6.93,7.66 3.83,1.29 4.35,-1.3 7.41,2.53 2.3,2.9 2.84,5.96 6.59,1.12 2.22,-2.87 0.49,-0.06 0.49,-6.34 -10.78,-7.23 -5.37,-7.36 -10.48,-11.88 -0.97,-0.85 -3.49,-2.7 -4.73,-3.03 0.43,-1.85 1.22,-2.47 1.55,-3.72 -1.94,0 -2.26,-0.43 -4.08,0.26 -1.81,0.7 -0.33,1.03 -4.31,0.97 -11.27,-0.14 -20.97,8.55 -27.37,16.73l-3.36 4.71c-1.35,1.78 -3.74,3.55 -6.08,4.51 -2.4,0.98 -3.51,-1.08 -7.59,-2.03 2.59,-3.87 2.23,-6.22 3.11,-7.76 0.38,-0.67 1,-0.95 2.99,-4.46 0.56,-0.99 0.99,-1.22 1.75,-1.98 1.71,-1.7 1.47,-2.85 1.47,-5.99 0.69,0.8 0.59,0.53 0.62,1.87 6.04,0.5 12.95,8.02 13.34,-6.84 0.12,-4.48 0.55,-1.29 0.01,-7.76 3.08,-0.25 5.19,-1.56 10.39,0.48 1.21,0.48 2.08,1.15 2.96,1.38 1.03,-1.93 0.67,-3.13 0.23,-5.5 -0.31,-1.73 -0.76,-3.54 -2.09,-4.43 -0.94,0.63 -6.15,6.05 -11.18,5.83 -1.12,-0.05 -0.77,-0.43 -2.19,-0.56 -1.33,-0.12 -1.7,0.23 -2.78,0.32 -0.39,0.82 -0.28,0.33 -0.31,1.55 -2.07,0.48 -4.13,1.07 -6.21,1.55l0 1.24c2.37,0 4.24,-0.93 6.52,-0.93 1.29,1.92 2.09,1.75 1.15,4.87 -0.49,1.6 -1.42,4.04 -1.46,5.69 -2.14,-1.13 -5.37,-2.3 -6.88,-3.37 -1.45,-1.03 -3.29,-2.25 -5.32,-0.74 -0.96,0.71 -0.73,0.67 -0.53,1.63l-1.31 -1.18c1.23,-0.4 1.83,-1.59 1.93,-2.86 -1.67,-0.45 -2.17,-1.53 -2.17,-3.11l0.21 0.42c0.61,1.23 1.21,2.2 4.47,2.12 2.36,-0.05 1.04,-0.93 2.08,-3.22 0.54,-1.19 -0.76,-0.67 1,-0.87 -0.04,-1.96 -0.68,-1.57 -0.9,-3.14 -0.24,-1.78 0.23,-2.34 -0.73,-3.61 -3.93,-5.21 -11.58,-1.23 -9.78,5.73 0.42,1.64 0.85,1 0.85,3.51 -2.19,1.05 -3.77,0.76 -6.22,0.61 -2.17,-0.14 -3.36,0.68 -5.68,1.77 -1.78,0.83 -3.5,1.52 -5.18,2.27 -3.37,1.51 -2.14,0.76 -4.3,3.46 -1.46,1.83 -2,2.2 -2.8,4.66 -1.53,4.67 -5.08,11.21 -3.11,14.21 2.8,4.23 2.45,-0.23 2.76,-4 0.84,1.31 0.34,2.49 0.93,3.72 1.75,-1.17 1.63,-4.4 0,-6.83 1.23,-1.83 2.46,-3.39 3.63,-5.38 0.62,-1.05 1.18,-1.85 1.74,-2.91 1.01,-1.93 0.39,-1.43 2.83,-1.83 5.35,-0.88 8.93,-3.77 10.01,-0.94 0.56,1.48 -0.07,1.16 1.36,3.3z"/>
    <path class="fil11" d="M2238.11 141.22c5.35,0 10.07,-0.85 14.43,-2.03 1.74,-0.47 2.26,-0.16 2.14,-1.45 -0.08,-0.9 -0.53,-2.5 -0.7,-3.37l-1.27 -7.12c-3.33,0.07 -15.29,5.6 -21.96,-2.26 -4.45,-5.24 -5.65,-23.48 4.38,-27.43 6.69,-2.65 15,0.91 17.58,1.12l1.16 -6.6c0.26,-1.27 0.49,-2.25 0.71,-3.39 0.31,-1.58 0.27,-1.46 -1.47,-1.89 -9.3,-2.29 -17.98,-3.42 -27.24,0.25 -6.08,2.41 -10.96,7.91 -13.11,14.23 -1,2.95 -2.15,8.91 -1.98,11.99 0.38,7.22 2.15,15.09 7.38,20.27 5.3,5.25 11.9,7.68 19.95,7.68zm56.83 -61.79l0 48.44c0,9.17 5.03,13.35 13.97,13.35 2.3,0 3.73,-0.25 5.59,-0.31 2.19,-0.07 3.72,-0.46 5.59,-0.62l0 -11.18c-2.15,0.18 -9.31,1.67 -9.31,-3.1l0 -28.26 9.31 0 0 -12.11 -9.31 0 0 -14.91c-1.13,0.1 -3.03,1.36 -4.04,1.87l-10.2 5.33c-0.76,0.44 -1.6,0.58 -1.6,1.5zm-32.6 0l0 46.58c0,16.81 10.51,15.2 20.18,14.9 1.43,-0.04 1.65,-0.2 3.11,-0.3 3.09,-0.21 2.17,-0.76 2.17,-10.57 0,-1.43 -0.89,-0.62 -1.86,-0.62 -2.43,0 -7.77,0.77 -7.77,-3.72l0 -27.95 8.7 0c0.71,0 0.93,-0.22 0.93,-0.93l0 -10.25c0,-0.72 -0.22,-0.93 -0.93,-0.93l-8.7 0 0 -14.91c-1.3,0.31 -10.52,5.27 -12.12,6.2 -0.86,0.5 -3.71,1.4 -3.71,2.5z"/>
   </g>
  </g>
 </g>
</svg>
