<?xml version="1.0" encoding="UTF-8"?>
<!DOCTYPE svg PUBLIC "-//W3C//DTD SVG 1.1//EN" "http://www.w3.org/Graphics/SVG/1.1/DTD/svg11.dtd">
<!-- Creator: CorelDRAW 2021.5 -->
<svg xmlns="http://www.w3.org/2000/svg" xml:space="preserve" width="1113.66mm" height="104.148mm" version="1.1" style="shape-rendering:geometricPrecision; text-rendering:geometricPrecision; image-rendering:optimizeQuality; fill-rule:evenodd; clip-rule:evenodd"
viewBox="0 0 84534.94 7905.58"
 xmlns:xlink="http://www.w3.org/1999/xlink"
 xmlns:xodm="http://www.corel.com/coreldraw/odm/2003">
 <defs>
  <style type="text/css">
   <![CDATA[
    .fil11 {fill:black}
    .fil10 {fill:#DE0024}
    .fil6 {fill:black;fill-rule:nonzero}
    .fil4 {fill:#122A96;fill-rule:nonzero}
    .fil9 {fill:#179BD7;fill-rule:nonzero}
    .fil8 {fill:#253B80;fill-rule:nonzero}
    .fil5 {fill:#2765AF;fill-rule:nonzero}
    .fil7 {fill:#D72027;fill-rule:nonzero}
    .fil3 {fill:#EB001B;fill-rule:nonzero}
    .fil1 {fill:#F79E1B;fill-rule:nonzero}
    .fil2 {fill:#FF5F00;fill-rule:nonzero}
    .fil0 {fill:white;fill-rule:nonzero}
   ]]>
  </style>
 </defs>
 <g id="Layer_x0020_1">
  <metadata id="CorelCorpID_0Corel-Layer"/>
  <path class="fil0" d="M10878.39 0.01l-9218.12 0c-917.43,0 -1660.28,742.85 -1660.28,1644.02l0 4617.54c0,901.18 742.85,1644.02 1660.28,1644.02l9218.12 0c916.72,0 1644.02,-742.85 1644.02,-1644.02l0 -4617.54c0,-901.18 -742.85,-1644.02 -1644.02,-1644.02z"/>
  <path class="fil1" d="M8996.89 3953.16c0,869.36 -696.2,1564.86 -1565.57,1564.86 -442.45,0 -869.36,-189.43 -1169.76,-521.62 521.62,-585.24 521.62,-1470.15 0,-2070.93 568.98,-648.85 1564.86,-711.75 2212.99,-142.77 332.2,300.39 522.32,727.3 522.32,1170.46l0.01 -0.01z"/>
  <ellipse class="fil2" cx="6261.56" cy="3953.16" rx="395.1" ry="1027.69"/>
  <path class="fil3" d="M5865.75 3953.16c0,378.84 142.77,742.85 395.81,1027.69 -569.68,648.14 -1565.57,711.04 -2213.7,142.07 -648.14,-568.98 -711.75,-1565.57 -142.77,-2213.7 569.68,-648.14 1565.57,-711.75 2213.7,-142.07 47.36,47.36 94.71,94.71 142.77,142.07 -253.04,300.39 -395.81,664.39 -395.81,1043.95l0 -0.01z"/>
  <path class="fil0" d="M16062.79 0.01l9218.12 0c916.72,0 1644.02,742.85 1644.02,1644.02l0 4617.54c0,916.72 -742.85,1644.02 -1644.02,1644.02l-9218.12 0c-901.18,0 -1644.73,-742.85 -1644.73,-1644.02l0 -4617.54c0,-901.18 743.56,-1644.02 1644.73,-1644.02z"/>
  <path class="fil4" d="M19604.57 2814.5l-949.23 2276.61 -616.34 0 -458.71 -1802.35c0,-79.16 -62.9,-158.33 -142.07,-205.68 -189.43,-94.71 -379.55,-158.33 -568.98,-189.43l0 -63.61 980.33 0c142.07,0 253.04,94.71 268.58,237.48l236.78 1312.53 600.78 -1550.01 648.85 -15.55 0.01 0zm2418.67 1533.76c0,-600.78 -822.01,-632.59 -822.01,-901.18 0,-79.16 79.16,-173.87 253.04,-190.13 189.43,-15.55 395.1,16.26 568.98,94.71l95.42 -474.27c-174.58,-62.9 -364,-94.71 -553.42,-94.71 -569.68,0 -980.33,300.39 -980.33,743.56 0,331.49 284.14,505.37 506.07,616.34 221.23,110.97 300.39,189.43 300.39,284.84 0,157.61 -174.58,221.23 -348.45,221.23 -204.97,0 -410.65,-47.36 -600.78,-142.77l-110.26 490.52c205.68,79.16 426.91,126.51 663.69,110.97 617.04,15.55 1027.69,-284.84 1027.69,-759.11l0 0 -0.01 0.01zm1518.21 742.85l537.17 0 -474.27 -2276.61 -489.81 0c-110.97,0 -205.68,62.9 -253.04,173.87l-869.36 2102.74 616.34 0 110.97 -332.2 742.85 0 79.16 332.2 -0.01 0zm-664.39 -806.46l316.65 -853.82 189.43 853.82 -506.07 0zm-2450.49 -1470.15l-474.27 2276.61 -568.98 0 474.27 -2276.61 568.98 0z"/>
  <path class="fil0" d="M30465.3 0.01l9217.4 0c917.43,0 1644.73,742.85 1644.73,1644.02l0 4617.54c0,916.72 -742.85,1644.02 -1644.73,1644.02l-9217.4 0c-917.43,0 -1644.73,-742.85 -1644.73,-1644.02l0 -4617.54c0,-901.18 727.3,-1644.02 1644.73,-1644.02z"/>
  <path class="fil5" d="M33057.84 5597.17l-15.55 110.97c0,62.9 31.81,110.26 94.71,110.26l3857.73 0c63.61,0 110.97,-47.36 95.42,-110.26l-16.26 -110.97c-15.55,-94.71 63.61,-173.87 142.77,-189.43 94.71,-16.26 173.87,62.9 189.43,142.07l15.55 110.97c31.81,252.33 -110.26,489.81 -378.84,489.81l-3968.69 0c-253.04,0 -411.36,-221.23 -379.55,-489.81l15.55 -110.97c16.26,-94.71 94.71,-158.33 190.13,-142.07 110.26,0 173.87,94.71 157.61,189.43z"/>
  <path class="fil6" d="M37090.15 3494.44c0,157.61 -63.61,253.04 -142.77,347.75l-15.55 15.55 15.55 0c190.13,110.97 316.65,284.84 316.65,522.32 15.55,347.75 -284.84,648.14 -632.59,648.14l-932.98 0c-94.71,0 -158.33,-79.16 -158.33,-173.87l0 -1803.05c0,-94.71 79.16,-173.87 158.33,-173.87l774.65 0c332.2,0 617.04,253.04 617.04,617.04l0 0 0 -0.01zm-458.71 1201.57c189.43,0 332.2,-142.07 332.2,-315.94 0,-190.13 -173.87,-300.39 -364,-300.39l-379.55 0c-78.46,0 -157.61,-63.61 -157.61,-158.33 0,-94.71 62.9,-158.33 157.61,-158.33l253.04 0c173.87,0 300.39,-110.26 316.65,-268.58 15.55,-173.87 -142.77,-300.39 -316.65,-300.39l-616.34 0 0 1501.96 774.65 0 0 0.01z"/>
  <path class="fil6" d="M34085.53 4411.16l0 0 0 0c47.36,-126.51 110.97,-253.04 158.33,-395.1 63.61,-158.33 110.97,-300.39 173.87,-426.91 63.61,-142.07 110.97,-268.58 158.33,-379.55 47.36,-110.26 94.71,-189.43 126.51,-221.23 47.36,-63.61 110.26,-94.71 205.68,-94.71l31.1 0c47.36,0 95.42,15.55 126.51,31.1 31.81,31.81 47.36,48.06 47.36,79.16l237.48 1865.96c0,47.36 -15.55,79.16 -47.36,110.97 -31.81,31.1 -63.61,31.1 -110.97,31.1 -47.36,0 -94.71,-15.55 -126.51,-31.1 -31.1,-16.26 -47.36,-48.06 -62.9,-95.42 -16.26,-62.9 -16.26,-126.51 -16.26,-204.97 -15.55,-79.16 -47.36,-395.81 -62.9,-490.52 -15.55,-79.16 -79.16,-616.34 -94.71,-806.46l0 -15.55 -79.16 158.33c-31.81,62.9 -47.36,126.51 -79.16,204.97 -31.81,79.16 -62.9,158.33 -94.71,253.04 -31.81,79.16 -190.13,506.07 -190.13,506.07 -15.55,31.81 -47.36,110.97 -62.9,190.13 -31.81,62.9 -47.36,142.07 -47.36,142.07 -31.81,62.9 -110.97,110.26 -190.13,110.26 -94.71,0 -157.61,-47.36 -189.43,-110.26 0,-15.55 -31.81,-79.16 -47.36,-142.07 -31.81,-79.16 -47.36,-142.77 -63.61,-190.13 0,0 -142.07,-426.91 -189.43,-506.07 -31.81,-79.16 -63.61,-173.87 -94.71,-253.04 -31.81,-78.46 -63.61,-142.07 -79.16,-204.97l-79.16 -158.33 0 15.55c-15.55,190.13 -94.71,711.75 -94.71,806.46 -16.26,79.16 -47.36,411.36 -63.61,490.52 0,78.46 -15.55,142.07 -15.55,204.97 0,31.81 -15.55,63.61 -62.9,95.42 -31.81,15.55 -63.61,31.1 -126.51,31.1 -48.06,0 -95.42,-15.55 -110.97,-31.1 -31.81,-31.81 -47.36,-63.61 -47.36,-110.97l253.04 -1865.96c0,-31.1 15.55,-62.9 47.36,-79.16 31.81,-31.1 62.9,-31.1 126.51,-31.1l31.1 0c79.16,0 158.33,31.1 205.68,94.71 31.81,47.36 79.16,110.97 126.51,221.23 47.36,110.97 110.97,237.48 158.33,379.55 62.9,142.07 110.97,284.84 173.87,426.91 47.36,142.07 94.71,268.58 142.07,395.1l0.02 0z"/>
  <path class="fil5" d="M33611.27 1755l2925.45 0c268.58,0 410.65,205.68 442.45,474.27l15.55 94.71c16.26,95.42 -62.9,173.87 -157.61,190.13 -94.71,15.55 -173.87,-63.61 -190.13,-158.33l-15.55 -79.16c-15.55,-110.26 -62.9,-189.43 -158.33,-189.43l-2814.48 0c-110.26,0 -142.07,79.16 -157.61,189.43l-16.26 79.16c-15.55,94.71 -94.71,158.33 -189.43,158.33 -94.71,-16.26 -158.33,-94.71 -158.33,-190.13l16.26 -94.71c47.36,-268.58 189.43,-474.27 458.01,-474.27l0.01 0z"/>
  <path class="fil0" d="M44867.09 0.01l9218.12 0c917.43,0 1644.73,742.85 1644.73,1644.02l0 4617.54c0,916.72 -743.56,1644.02 -1644.73,1644.02l-9218.12 0c-916.72,0 -1644.02,-742.85 -1644.02,-1644.02l0 -4617.54c0,-901.18 727.3,-1644.02 1644.02,-1644.02z"/>
  <path class="fil7" d="M45800.07 5391.5l-15.55 110.97c0,47.36 31.81,94.71 79.16,94.71l3399.01 0c47.36,0 95.42,-47.36 95.42,-94.71l-16.26 -110.97c-15.55,-79.16 47.36,-157.61 126.51,-157.61 79.16,-16.26 158.33,47.36 158.33,125.81l15.55 95.42c31.81,221.23 -94.71,426.91 -331.49,426.91l-3494.43 0c-237.48,0 -364,-205.68 -332.2,-426.91l15.55 -95.42c16.26,-78.46 79.16,-142.07 158.33,-125.81 94.71,0 142.07,78.46 142.07,157.61z"/>
  <path class="fil6" d="M49341.86 3541.79c0,142.07 -47.36,221.23 -126.51,315.94l-15.55 16.26 15.55 0c158.33,94.71 269.29,253.04 284.84,458.01 15.55,316.65 -253.04,569.68 -553.42,569.68l-822.01 0c-79.16,0 -142.77,-63.61 -142.77,-142.77l0 -1596.67c0,-79.16 63.61,-142.07 142.77,-142.07l679.95 0c284.14,-16.26 537.17,205.68 537.17,521.62l0 0 -0.01 0zm-410.66 1059.5c157.61,0 300.39,-126.51 300.39,-284.84 0,-158.33 -158.33,-268.58 -316.65,-268.58l-332.2 0c-78.46,0 -126.51,-63.61 -126.51,-142.77 0,-78.46 63.61,-142.07 126.51,-142.07l221.94 0c142.07,0 268.58,-94.71 268.58,-236.78 0,-158.33 -126.51,-269.29 -284.84,-269.29l-537.17 0 0 1328.08 679.95 16.26 0 -0.01z"/>
  <path class="fil6" d="M46701.24 4348.25l0 0 0 0c48.06,-110.97 95.42,-221.23 142.77,-347.75 47.36,-126.51 94.71,-253.04 142.07,-379.55 47.36,-126.51 94.71,-237.48 142.07,-332.2 47.36,-94.71 79.16,-158.33 110.97,-205.68 47.36,-47.36 110.97,-79.16 173.87,-79.16l31.81 0c47.36,0 79.16,16.26 110.26,31.81 31.81,15.55 31.81,47.36 47.36,79.16l205.68 1644.02c0,47.36 -15.55,79.16 -31.1,95.42 -31.81,15.55 -63.61,31.1 -110.97,31.1 -47.36,0 -79.16,-15.55 -110.97,-31.1 -31.1,-16.26 -47.36,-47.36 -47.36,-79.16 0,-47.36 -15.55,-110.97 -15.55,-190.13 -15.55,-62.9 -47.36,-347.75 -47.36,-426.91 -15.55,-78.46 -63.61,-537.17 -94.71,-711.04l0 -16.26 -63.61 142.77c-15.55,47.36 -47.36,110.26 -79.16,173.87 -31.1,62.9 -47.36,142.07 -79.16,221.23 -31.1,79.16 -157.61,442.45 -157.61,442.45 -16.26,31.81 -31.81,94.71 -63.61,158.33 -15.55,62.9 -47.36,126.51 -47.36,126.51 -31.81,62.9 -94.71,110.97 -173.87,110.97 -79.16,0 -142.07,-48.06 -173.87,-110.97 0,-15.55 -31.81,-63.61 -47.36,-126.51 -15.55,-63.61 -47.36,-126.51 -62.9,-158.33 0,0 -126.51,-379.55 -158.33,-442.45 -31.81,-79.16 -47.36,-142.07 -79.16,-221.23 -31.81,-63.61 -47.36,-126.51 -79.16,-173.87l-62.9 -142.77 0 16.26c-16.26,173.87 -79.16,632.59 -95.42,711.04 -15.55,79.16 -47.36,364 -47.36,426.91 0,63.61 -15.55,126.51 -15.55,190.13 0,31.81 -15.55,62.9 -47.36,79.16 -31.81,15.55 -63.61,31.1 -110.97,31.1 -47.36,0 -79.16,-15.55 -110.26,-31.1 -31.81,-31.81 -31.81,-63.61 -31.81,-95.42l205.68 -1644.02c0,-31.81 15.55,-47.36 47.36,-79.16 31.81,-15.55 62.9,-31.81 110.26,-31.81l31.81 0c79.16,0 126.51,31.81 173.87,79.16 31.81,31.81 63.61,110.97 110.97,205.68 47.36,94.71 94.71,205.68 142.07,332.2 47.36,126.51 94.71,253.04 158.33,379.55 79.16,126.51 110.26,253.04 157.61,347.75l0.02 0z"/>
  <path class="fil7" d="M46290.59 2008.03l2577 0c237.48,0 364,189.43 395.1,426.91l16.26 79.16c15.55,79.16 -47.36,158.33 -126.51,158.33 -79.16,15.55 -158.33,-48.06 -158.33,-126.51l-15.55 -79.16c-16.26,-95.42 -47.36,-158.33 -142.77,-158.33l-2482.29 0c-94.71,0 -126.51,63.61 -142.07,158.33l-15.55 79.16c-16.26,78.46 -79.16,142.07 -158.33,126.51 -79.16,-16.26 -142.07,-79.16 -126.51,-158.33l15.55 -79.16c0,-237.48 110.97,-426.91 364,-426.91z"/>
  <path class="fil6" d="M50922.97 3747.47c-15.55,62.9 -31.1,142.07 -62.9,221.23 -16.26,79.16 -31.81,158.33 -63.61,221.23 -15.55,79.16 -31.1,126.51 -47.36,190.13 -15.55,47.36 -31.81,94.71 -47.36,110.26 -15.55,31.81 -47.36,47.36 -110.26,47.36 -16.26,0 -31.81,0 -48.06,-15.55 -15.55,0 -47.36,-16.26 -62.9,-47.36 -15.55,-16.26 -31.81,-63.61 -47.36,-110.97 -16.26,-62.9 -31.81,-126.51 -47.36,-205.68 -16.26,-78.46 -31.81,-157.61 -63.61,-236.78 -15.55,-79.16 -31.1,-158.33 -47.36,-237.48 -15.55,-79.16 -31.81,-126.51 -31.81,-189.43 -15.55,-47.36 -15.55,-79.16 -15.55,-94.71l0 -16.26 0 0c0,-15.55 0,-31.1 31.81,-47.36 15.55,-15.55 31.81,-15.55 62.9,-15.55 16.26,0 47.36,0 47.36,15.55 16.26,16.26 16.26,31.81 31.81,47.36 0,0 0,16.26 15.55,47.36 0,31.81 16.26,79.16 31.81,126.51 16.26,47.36 16.26,110.97 31.81,173.87 15.55,63.61 31.81,126.51 47.36,205.68 15.55,63.61 31.81,126.51 47.36,190.13 16.26,62.9 31.81,110.26 47.36,157.61 16.26,-47.36 31.81,-94.71 47.36,-142.07 16.26,-47.36 31.81,-110.97 47.36,-173.87 16.26,-63.61 31.81,-110.97 48.06,-173.87 15.55,-63.61 31.1,-110.97 31.1,-158.33 16.26,-47.36 16.26,-94.71 31.81,-126.51 15.55,-31.81 15.55,-62.9 15.55,-79.16 0,-15.55 16.26,-47.36 31.81,-62.9 16.26,-15.55 31.81,-15.55 63.61,-15.55 31.1,0 47.36,0 62.9,15.55 15.55,15.55 31.81,31.81 31.81,47.36 15.55,62.9 31.81,126.51 47.36,205.68 15.55,79.16 31.81,158.33 47.36,236.78 15.55,79.16 31.81,158.33 47.36,221.94 15.55,78.46 31.81,142.07 47.36,204.97 16.26,-47.36 31.81,-94.71 47.36,-157.61 16.26,-63.61 31.81,-126.51 47.36,-190.13 16.26,-62.9 31.81,-126.51 47.36,-189.43 16.26,-63.61 31.81,-126.51 31.81,-173.87 16.26,-47.36 16.26,-95.42 31.81,-126.51 0,-31.81 15.55,-47.36 15.55,-47.36 0,-16.26 16.26,-47.36 31.81,-47.36 15.55,-16.26 31.81,-16.26 47.36,-16.26 16.26,0 47.36,0 63.61,16.26 15.55,15.55 31.1,31.1 31.1,47.36l0 0c0,0 0,0 0,15.55 0,15.55 0,47.36 -15.55,94.71 -15.55,47.36 -15.55,110.97 -31.81,190.13 -15.55,79.16 -31.1,142.07 -47.36,236.78 -15.55,79.16 -31.81,158.33 -47.36,237.48 -15.55,79.16 -31.81,142.07 -47.36,205.68 -15.55,62.9 -31.81,94.71 -47.36,110.26 -15.55,31.81 -31.81,47.36 -63.61,47.36 -15.55,0 -47.36,16.26 -62.9,16.26l-15.55 0c-16.26,0 -16.26,0 -31.81,0 -15.55,0 -15.55,-16.26 -31.81,-16.26 -15.55,-15.55 -15.55,-15.55 -31.81,-31.81 -15.55,-15.55 -31.1,-62.9 -47.36,-110.26 -15.55,-47.36 -31.1,-110.97 -47.36,-190.13 -15.55,-62.9 -31.1,-142.07 -47.36,-221.23 -47.36,-94.71 -62.9,-173.87 -79.16,-236.78z"/>
  <path class="fil6" d="M52330.21 4031.61c-31.81,-78.46 -47.36,-157.61 -79.16,-221.23 -31.1,-62.9 -47.36,-126.51 -78.46,-189.43 0,-16.26 -16.26,-31.81 -16.26,-47.36 0,-16.26 -15.55,-31.81 -15.55,-31.81 0,0 0,15.55 -16.26,31.81 0,15.55 -15.55,31.1 -15.55,47.36 -31.81,62.9 -47.36,126.51 -79.16,189.43 -15.55,63.61 -47.36,142.77 -79.16,221.23l379.55 0 0.02 0zm-426.91 158.33c-15.55,63.61 -31.81,110.97 -47.36,173.87 -15.55,47.36 -31.81,94.71 -47.36,126.51 -15.55,31.81 -47.36,47.36 -79.16,47.36 -31.81,0 -47.36,0 -62.9,-15.55 -16.26,-16.26 -16.26,-31.81 -16.26,-63.61 0,-15.55 0,-15.55 0,-31.1 0,0 16.26,-31.81 16.26,-79.16 15.55,-47.36 31.1,-94.71 47.36,-158.33 15.55,-62.9 47.36,-142.07 62.9,-221.23 31.81,-79.16 47.36,-158.33 79.16,-237.48 31.81,-78.46 47.36,-142.07 79.16,-204.97 31.81,-63.61 47.36,-126.51 79.16,-158.33 15.55,-16.26 15.55,-31.81 47.36,-47.36 15.55,0 47.36,-16.26 62.9,-16.26 31.81,0 47.36,0 63.61,16.26 15.55,15.55 31.81,31.1 47.36,47.36 15.55,31.81 31.81,94.71 62.9,158.33 31.81,62.9 48.06,126.51 79.16,204.97 31.81,79.16 47.36,142.77 79.16,221.94 31.81,78.46 47.36,142.07 79.16,204.97 15.55,63.61 47.36,126.51 62.9,173.87 16.26,47.36 31.81,79.16 31.81,95.42 0,0 0,15.55 0,31.1 0,16.26 0,47.36 -15.55,63.61 -16.26,15.55 -31.81,15.55 -63.61,15.55 -15.55,0 -31.1,0 -47.36,-15.55 -15.55,-16.26 -15.55,-16.26 -31.81,-47.36 -15.55,-31.81 -31.1,-79.16 -47.36,-126.51 -15.55,-47.36 -31.1,-110.97 -47.36,-173.87l-474.27 0 0 15.55 0.01 0.01zm0 0l0 0 0 0z"/>
  <path class="fil6" d="M52962.8 4063.41l-15.55 -15.55c0,0 -16.26,-16.26 -16.26,-31.81 -15.55,-31.81 -31.1,-47.36 -62.9,-94.71 -16.26,-31.81 -47.36,-79.16 -63.61,-110.97 -15.55,-47.36 -47.36,-79.16 -62.9,-126.51 -16.26,-47.36 -31.81,-79.16 -47.36,-110.26 -16.26,-31.81 -31.81,-63.61 -47.36,-95.42 -16.26,-31.1 -16.26,-47.36 -16.26,-47.36l0 -15.55c0,0 0,0 0,-15.55 0,-16.26 0,-48.06 16.26,-63.61 15.55,-15.55 31.1,-15.55 62.9,-15.55 31.81,0 47.36,0 47.36,15.55 16.26,15.55 16.26,31.81 16.26,31.81 0,0 15.55,15.55 15.55,47.36 15.55,15.55 15.55,47.36 31.81,79.16 15.55,31.81 31.1,62.9 47.36,110.26 15.55,31.81 31.1,79.16 47.36,110.97 15.55,31.81 31.81,62.9 47.36,110.97 15.55,31.1 31.81,62.9 47.36,78.46 31.81,-31.1 47.36,-78.46 79.16,-142.07 31.81,-47.36 47.36,-110.97 79.16,-158.33 31.1,-47.36 47.36,-94.71 62.9,-142.07 16.26,-47.36 31.81,-62.9 31.81,-79.16 0,-15.55 15.55,-31.81 15.55,-31.81 16.26,-15.55 31.81,-15.55 47.36,-15.55 31.81,0 47.36,0 63.61,15.55 15.55,16.26 15.55,31.81 15.55,63.61l0 15.55c0,0 0,0 0,16.26 0,15.55 -15.55,31.1 -15.55,47.36 -16.26,31.1 -31.81,62.9 -47.36,94.71 -16.26,31.81 -31.81,79.16 -47.36,110.97 -16.26,47.36 -47.36,78.46 -63.61,125.81 -15.55,48.06 -47.36,79.16 -62.9,110.97 -16.26,31.81 -47.36,63.61 -63.61,94.71 -15.55,16.26 -15.55,31.81 -31.81,47.36l0 395.81c0,31.1 0,47.36 -31.1,62.9 -16.26,15.55 -31.81,15.55 -63.61,15.55 -31.81,0 -47.36,-15.55 -62.9,-15.55 -16.26,-15.55 -16.26,-31.81 -16.26,-62.9l0 -411.36 63.61 0 -0.02 -0.01zm0 0l0 0 0 0z"/>
  <path class="fil0" d="M68487.71 0.01l-9218.12 0c-916.72,0 -1644.02,742.85 -1644.02,1644.02l0 4617.54c0,916.72 742.85,1644.02 1644.02,1644.02l9218.12 0c917.43,0 1644.73,-742.85 1644.73,-1644.02l0 -4616.84c0,-901.88 -743.56,-1644.73 -1644.73,-1644.73l0 0.01z"/>
  <path class="fil8" d="M61040.85 2956.57c-126.51,-126.51 -315.94,-189.43 -490.52,-173.87l-663.69 0c-47.36,0 -94.71,31.81 -94.71,79.16l-300.39 1739.44c0,31.1 15.55,62.9 47.36,62.9l0 0 332.2 0c47.36,0 78.46,-31.81 94.71,-62.9l79.16 -474.27c0,-47.36 47.36,-79.16 94.71,-79.16l221.23 0c379.55,47.36 727.3,-237.48 774.65,-617.04 0,-15.55 0,-31.1 0,-47.36 31.81,-142.07 0,-300.39 -94.71,-426.91l-0.01 0.01zm-411.36 458.71c-31.1,237.48 -221.23,237.48 -395.1,237.48l-94.71 0 62.9 -458.71c0,-31.81 31.81,-47.36 63.61,-47.36l47.36 0c126.51,0 236.78,0 300.39,62.9 15.55,79.16 31.81,142.07 15.55,205.68l-0.01 0.01z"/>
  <path class="fil8" d="M62590.15 3415.28l-332.2 0c-31.1,0 -47.36,15.55 -62.9,47.36l0 94.71 -15.55 -31.1c-95.42,-95.42 -237.48,-158.33 -379.55,-142.77 -379.55,16.26 -679.95,284.84 -727.3,664.39 -31.81,173.87 15.55,363.3 126.51,506.07 110.26,110.26 253.04,173.87 410.65,157.61 173.87,0 332.2,-62.9 443.17,-189.43l0 94.71c0,31.81 15.55,63.61 47.36,63.61l300.39 0c47.36,0 94.71,-31.81 94.71,-79.16l173.87 -1123.11c15.55,-31.1 0,-62.9 -31.81,-62.9 -31.1,-15.55 -47.36,-15.55 -47.36,0l0 0.01zm-822.01 948.53c-79.16,0 -158.33,-31.81 -221.23,-79.16 -47.36,-62.9 -63.61,-157.61 -47.36,-236.78 15.55,-190.13 173.87,-332.2 363.3,-332.2 79.16,0 158.33,31.81 221.23,94.71 47.36,63.61 79.16,142.77 63.61,237.48 -31.81,173.87 -205.68,315.94 -379.55,315.94l0 0.01z"/>
  <path class="fil8" d="M64314.04 3415.28l-332.2 0c-31.81,0 -63.61,15.55 -79.16,47.36l-458.71 664.39 -173.87 -648.85c-15.55,-47.36 -47.36,-62.9 -94.71,-62.9l-332.2 0c-31.81,0 -62.9,31.81 -62.9,62.9l0 16.26 363.3 1059.5 -332.2 474.27c-15.55,31.1 -15.55,62.9 16.26,79.16 15.55,0 15.55,15.55 31.81,15.55l331.49 0c31.81,0 63.61,-15.55 79.16,-31.81l1091.3 -1581.11c15.55,-31.81 0,-62.9 -47.36,-94.71 15.55,0 15.55,0 0,0l0 -0.02z"/>
  <path class="fil9" d="M65895.16 2956.57c-126.51,-126.51 -316.65,-189.43 -490.52,-173.87l-679.95 0c-47.36,0 -79.16,31.81 -94.71,79.16l-284.84 1739.44c0,31.1 16.26,62.9 47.36,62.9l0 0 348.45 0c31.1,0 62.9,-31.81 62.9,-62.9l79.16 -490.52c0,-47.36 47.36,-79.16 94.71,-79.16l221.23 0c379.55,48.06 727.3,-236.78 774.65,-616.34 0,-15.55 0,-15.55 0,-31.81 31.81,-142.07 16.26,-300.39 -78.46,-426.91zm-411.36 474.26c-31.81,237.48 -221.23,237.48 -395.1,237.48l-95.42 0 79.16 -458.71c0,-31.81 31.81,-47.36 63.61,-47.36l0 0 47.36 0c126.51,0 236.78,0 300.39,63.61 0,62.9 15.55,125.81 0,204.97l0 0 -0.01 0.01z"/>
  <path class="fil9" d="M67428.21 3415.28l-331.49 0c-31.81,0 -47.36,15.55 -63.61,47.36l0 94.71 -15.55 -31.1c-94.71,-95.42 -237.48,-158.33 -379.55,-142.77 -379.55,16.26 -679.95,284.84 -727.3,664.39 -31.81,173.87 0,363.3 126.51,506.07 110.26,110.26 253.04,173.87 411.36,157.61 173.87,0 331.49,-62.9 458.01,-189.43l0 94.71c0,31.81 16.26,63.61 47.36,63.61l0 0 300.39 0c48.06,0 79.16,-31.81 95.42,-79.16l157.61 -1123.11c0,-31.1 -15.55,-62.9 -47.36,-62.9 -15.55,0 -15.55,0 -31.81,0l0.01 0.01zm-822.01 948.53c-79.16,0 -157.61,-31.81 -221.23,-79.16 -47.36,-62.9 -62.9,-157.61 -47.36,-236.78 15.55,-190.13 173.87,-332.2 363.3,-332.2 142.77,-15.55 269.29,94.71 284.84,237.48 0,31.1 0,62.9 -15.55,94.71 -16.26,189.43 -173.87,315.94 -364,315.94l0.01 0.01z"/>
  <path class="fil9" d="M68187.32 2782.69l-332.2 0c-31.1,0 -47.36,16.26 -62.9,47.36l-253.04 1786.8c0,31.81 15.55,63.61 47.36,63.61 0,0 0,0 16.26,0l284.14 0c47.36,0 79.16,-31.81 94.71,-79.16l269.29 -1754.99c0,-31.81 -31.81,-63.61 -63.61,-63.61l0 0 0 -0.01z"/>
  <path class="fil0" d="M82890.21 0.01l-9218.12 0c-916.72,0 -1644.02,742.85 -1644.02,1644.02l0 4617.54c0,916.72 742.85,1644.02 1644.02,1644.02l9218.12 0c917.43,0 1644.73,-742.85 1644.73,-1644.02l0 -4616.84c0,-901.88 -743.56,-1644.73 -1644.73,-1644.73l0 0.01z"/>
  <g id="_2468618515440">
   <path class="fil10" d="M78047.54 4476.29zm-1058.4 -66.85l1058.4 66.85zm-1058.4 -66.85c-11.29,-14.94 -11.14,23.43 -11.14,-33.42 10.3,13.63 7.23,-12.52 11.14,33.42zm-2161.35 -501.34l-11.14 11.14 11.14 -11.14zm0 0zm2328.46 -434.5l-2328.46 434.5zm2328.46 -434.5zm746.45 -568.19l-746.45 568.19zm746.45 -568.19c59.27,1.32 76.62,5.78 77.99,66.84 -55.54,0 -70.27,-6.7 -77.99,-66.84zm-1983.09 -66.84zm0 0zm0 0l-22.28 -11.14 22.28 11.14zm412.21 -89.13l-12.81 -21.72 12.81 21.72zm-22.28 -44.57l3.32 3.32c-0.22,-0.21 -4.43,-2.21 -3.32,-3.32zm-22.28 -523.62l55.7 0 0 33.42c-44.38,-3.69 -36.34,-4.5 -55.7,-33.42zm958.12 -89.13c45.54,33.37 44.57,99.78 44.57,178.26 -41.71,-30.57 -44.57,-106.13 -44.57,-178.26zm-1348.06 735.3c-56.33,-15.04 -62.71,-47.75 -104.46,-74.36 -41.25,-26.29 -102.54,-13.12 -126.2,21.95 -54.9,81.4 41.5,413.38 -7.48,493.87 -41.48,68.17 -101.05,123.97 -107.74,249.36 -5.67,106.29 18,87.48 33.94,155.89 -164.4,0 -360.6,27.9 -508.09,83.79 -44.76,16.96 -21.6,19.09 -62.34,-2.28l-69.02 -32.53c-224.59,-84.7 -421.09,3.26 -577.72,159.89 -205,205.01 -295.07,415.87 -670.42,510.52 -127.7,32.2 -220.4,27.05 -374.02,27.05 10.32,124.12 442.27,174.17 568.19,144.83 -31.03,46.33 -140.34,105.47 -211.67,111.41 27.84,104.27 330.51,18.97 389.46,-11.61 98.88,-51.31 203.84,-140.72 272.61,-228.73l163.9 -203.76c18.62,-23.28 34.03,-46.61 52.63,-69.92 49.05,-61.44 183.65,-223.77 257.77,-243.56 -57.41,108.5 -149.45,177.43 -156.35,422.98 -4.7,167.39 79.86,371.27 -160.41,552.61 -41.1,31.02 -47.34,28.21 -62.59,82.25 -21.3,75.51 -31.55,155.32 -50.7,238.96 -50.49,220.56 -71.35,241.48 -182.71,407.77 -78.29,0 -114.35,-16.97 -178.25,-22.29 -22.5,21.35 -285.48,412.93 32.53,311.06 181.95,-58.28 249.67,-128.75 352.72,-271.17 84.17,-116.36 165.72,-248.32 231.03,-381.73 35.69,-72.9 77.48,-124.8 167.95,-144 75.85,-16.09 193.05,-37.79 274.16,-37.79 -51.43,44.69 -47.37,31.04 -104.71,62.4 -84.66,46.3 4.93,104.78 -144.41,356.94 -27.43,46.31 -43.01,56.62 -115.47,45.56 -57.34,-8.75 -86,-15.77 -113.3,37.61 -42.33,82.79 -56.88,163.1 -56.88,288.5 288.11,0 441.95,-283 545.95,-490.15 19.36,-38.54 31.55,-73.44 51.81,-115.3l77.55 -178.69c1.39,-3.17 13.31,-29.95 13.8,-30.77 19.51,-32.94 33.32,-30.06 77.58,-56.1 97.4,-57.31 158.08,-115.29 226.63,-207.86 52.82,-71.34 72.32,-147.57 126.64,-218.73 42.9,-56.19 141.46,-121.23 228.08,-128.44 -26.97,40.27 -63.47,57.01 -77.99,111.41 109.24,0 243.08,47.29 324.52,76.57 334.82,120.35 389.2,194.69 778.16,23.42 20.46,-9.01 47.37,-19.05 70.21,-30.06 26.45,-12.74 38.1,-22.92 63.76,-36.5 -31.81,-47.51 -66.84,-99.13 -66.84,-178.25 12.22,14.06 0.4,-0.54 14,19.42 7.45,10.93 10.82,16.75 17.78,26.8 37.16,53.73 73.11,82.34 135.16,109.94 156.24,69.51 164.06,-32.96 474.66,-105.03 70.75,-16.41 207.27,-39.99 283.1,-39.99 -45.38,67.79 -235.02,276.19 -313.18,288.42 -90.07,14.11 -202.12,-3.43 -246.39,54.42 -35.45,46.32 -75.46,157.38 -75.46,236.49 130.77,62.74 335.13,-100.86 434.5,-167.12l286.2 -203.99c29.65,-24.15 64.71,-55.86 92.59,-74.53 -15.64,-29.56 -28.92,-48.42 -44.57,-77.98 36.15,9.65 272.6,177 298.35,292.12 17.04,76.19 24.65,177.84 80.16,209.5 54.21,30.92 172.65,50.08 245.39,33.14 0,-104.93 -21.22,-139.13 -64.41,-202.98l-183.49 -228.73c-122.44,-128.52 -172.52,-214.45 -336.09,-343.5 -102.41,-80.8 -51.45,-54.8 -202.24,-76.28l-528.4 -28.65c-10.19,-43.75 -36.63,-79.04 -60.4,-117.86 -29.98,-48.96 -64.41,-82.82 -73.3,-116.1 42.78,28.65 54.5,37.08 92.13,74.99 32.19,32.44 49.81,67.81 86.13,92.13 0,-390.26 -180.1,-424.56 147.4,-755.02 28.15,-28.4 54.17,-48.83 75.42,-80.56 -9.91,-42.5 -23.52,-46.61 -33.42,-89.12 -106.29,24.76 -162.56,80.73 -238.83,139.97 -96.33,74.83 -161.57,171.43 -195.67,194.26 28.34,-106.11 195.24,-270.88 308.33,-337.85l148.45 -74.37c8.11,97.49 136.08,237.13 248.62,275 137.47,46.26 156.24,-46.87 265.8,90.72 82.81,103.99 102.13,213.85 236.75,40.06 79.62,-102.79 17.56,-2.17 17.56,-227.53 -387.05,-259.18 -192.75,-264.12 -376.06,-426.09 -34.69,-30.65 -125.13,-96.74 -169.84,-108.68 15.47,-66.41 43.69,-88.72 55.7,-133.69 -69.43,0 -81.2,-15.42 -146.23,9.59 -65.2,25.08 -11.95,36.7 -154.68,34.87 -404.42,-5.19 -752.45,306.66 -981.96,600.05l-120.66 169.01c-48.54,64.02 -134.11,127.33 -218.07,161.64 -86.15,35.21 -125.88,-38.62 -272.36,-72.75 92.91,-138.74 80.04,-223.14 111.52,-278.41 13.68,-24.01 36,-34.14 107.42,-159.96 20.14,-35.49 35.28,-43.58 62.72,-70.97 61.23,-61.14 52.57,-102.26 52.57,-214.82 24.75,28.47 21.22,18.94 22.29,66.84 216.79,18.04 464.88,287.8 478.73,-245.43 4.17,-160.52 19.64,-46.08 0.33,-278.19 110.52,-9.2 186.19,-56.13 372.72,17.22 43.53,17.12 74.54,41.13 106.35,49.63 36.78,-69.52 23.91,-112.53 8.25,-197.65 -11.38,-61.92 -27.46,-126.96 -75.09,-158.87 -33.79,22.63 -220.53,217.15 -401.18,209.06 -39.97,-1.79 -27.53,-15.35 -78.44,-19.93 -47.87,-4.3 -61.01,8.2 -99.71,11.42 -14.19,29.57 -10.17,11.93 -11.14,55.71 -74.43,17.34 -148.38,38.36 -222.82,55.7l0 44.57c85.13,0 152.06,-33.42 233.96,-33.42 46.14,68.91 74.92,62.75 41,174.62 -17.39,57.35 -50.83,144.79 -52.15,204.17 -76.95,-40.72 -192.8,-82.64 -246.74,-120.9 -52.15,-36.99 -118.37,-80.73 -191.08,-26.6 -34.42,25.63 -26.2,24.15 -18.95,58.38l-47.04 -42.09c44.23,-14.35 65.52,-57.13 69.32,-102.75 -59.9,-15.99 -77.99,-54.95 -77.99,-111.41l7.54 14.75c21.94,44.22 43.56,78.89 160.54,76.22 84.71,-1.94 37.28,-33.38 74.57,-115.71 19.25,-42.49 -27.33,-24.05 35.87,-30.96 -1.57,-70.45 -24.58,-56.54 -32.15,-112.69 -8.63,-64.05 8.2,-83.9 -26.33,-129.63 -141.03,-186.78 -415.6,-43.94 -350.91,205.78 15.17,58.6 30.6,35.83 30.6,125.67 -78.69,37.76 -135.46,27.46 -223.15,21.85 -77.84,-4.99 -120.61,24.57 -203.95,63.54 -63.75,29.81 -125.63,54.61 -185.85,81.54 -120.9,54.06 -76.82,27.39 -154.24,124.28 -52.5,65.69 -71.64,78.79 -100.46,166.93 -54.84,167.72 -182.33,402.24 -111.39,509.8 100.12,151.83 87.63,-8.08 98.9,-143.49 29.95,47.18 12.29,89.63 33.43,133.69 62.87,-42.1 58.26,-158.09 0,-245.1 44,-65.71 88.08,-121.76 130.21,-192.88 22.32,-37.69 42.36,-66.41 62.39,-104.72 36.06,-68.98 13.87,-51.06 101.59,-65.53 191.8,-31.66 320.42,-135.23 358.92,-33.8 20.16,53.11 -2.47,41.89 48.78,118.41z"/>
   <path class="fil11" d="M80298.02 5066.76c191.66,0 361,-30.59 517.53,-73 62.59,-16.97 81.09,-5.81 76.98,-51.84 -2.91,-32.55 -19.2,-89.91 -25.47,-121.11l-45.42 -255.39c-119.44,2.66 -548.6,200.88 -787.91,-81.08 -159.65,-188.11 -202.48,-842.23 157.1,-984.23 240.15,-94.84 538.11,32.62 630.81,40.34l41.78 -236.75c9.14,-45.48 17.4,-80.66 25.42,-121.67 11.12,-56.86 9.55,-52.32 -52.95,-67.75 -333.59,-82.32 -645.01,-122.76 -977.28,9.04 -217.88,86.43 -393.07,283.66 -470.15,510.25 -36.04,105.94 -77.08,319.95 -71.28,430.17 13.63,259.14 77.17,541.41 264.98,727.33 190.15,188.23 427.03,275.69 715.86,275.69z"/>
   <path class="fil11" d="M81167.01 2849.7l0 1671.15c0,603.13 377.29,545.54 724.15,534.75 51.24,-1.59 59.08,-7.17 111.77,-10.78 110.74,-7.59 77.65,-27.17 77.65,-379.13 0,-51.3 -31.98,-22.29 -66.85,-22.29 -86.97,0 -278.52,27.65 -278.52,-133.69l0 -1002.69 311.95 0c25.66,0 33.42,-7.75 33.42,-33.42l0 -367.65c0,-25.67 -7.76,-33.42 -33.42,-33.42l-311.95 0 0 -534.77c-46.61,10.86 -377.53,188.94 -434.99,222.32 -30.72,17.85 -133.2,50.36 -133.2,89.62z"/>
   <path class="fil11" d="M82336.82 2849.7l0 1737.99c0,328.91 180.33,479.06 501.34,479.06 82.47,0 133.78,-9.03 200.55,-11.12 78.5,-2.46 133.29,-16.71 200.52,-22.3l0 -401.08c-77.43,6.44 -334.23,59.69 -334.23,-111.41l0 -1013.83 334.23 0 0 -434.49 -334.23 0 0 -534.77c-40.63,3.39 -108.71,48.8 -144.83,66.85l-365.86 191.19c-27.36,15.84 -57.5,21.07 -57.5,53.91z"/>
  </g>
 </g>
</svg>
