<?xml version="1.0" encoding="UTF-8"?>
<!DOCTYPE svg PUBLIC "-//W3C//DTD SVG 1.1//EN" "http://www.w3.org/Graphics/SVG/1.1/DTD/svg11.dtd">
<!-- Creator: CorelDRAW 2021.5 -->
<svg xmlns="http://www.w3.org/2000/svg" xml:space="preserve" width="13154px" height="1230px" version="1.1" style="shape-rendering:geometricPrecision; text-rendering:geometricPrecision; image-rendering:optimizeQuality; fill-rule:evenodd; clip-rule:evenodd"
viewBox="0 0 18651.57 1744.27"
 xmlns:xlink="http://www.w3.org/1999/xlink"
 xmlns:xodm="http://www.corel.com/coreldraw/odm/2003">
 <defs>
  <style type="text/css">
   <![CDATA[
    .fil6 {fill:black;fill-rule:nonzero}
    .fil11 {fill:#0A0B09;fill-rule:nonzero}
    .fil4 {fill:#122A96;fill-rule:nonzero}
    .fil9 {fill:#179BD7;fill-rule:nonzero}
    .fil8 {fill:#253B80;fill-rule:nonzero}
    .fil5 {fill:#2765AF;fill-rule:nonzero}
    .fil7 {fill:#D72027;fill-rule:nonzero}
    .fil3 {fill:#EB001B;fill-rule:nonzero}
    .fil0 {fill:#F4F5FF;fill-rule:nonzero}
    .fil1 {fill:#F79E1B;fill-rule:nonzero}
    .fil2 {fill:#FF5F00;fill-rule:nonzero}
    .fil10 {fill:#FFB3C7;fill-rule:nonzero}
   ]]>
  </style>
 </defs>
 <g id="Layer_x0020_1">
  <metadata id="CorelCorpID_0Corel-Layer"/>
  <path class="fil0" d="M2400.18 0l-2033.86 0c-202.42,0 -366.32,163.9 -366.32,362.73l0 1018.81c0,198.83 163.9,362.73 366.32,362.73l2033.86 0c202.26,0 362.73,-163.9 362.73,-362.73l0 -1018.81c0,-198.83 -163.9,-362.73 -362.73,-362.73z"/>
  <path class="fil1" d="M1985.05 872.21c0,191.82 -153.61,345.27 -345.42,345.27 -97.63,0 -191.82,-41.79 -258.1,-115.09 115.09,-129.12 115.09,-324.37 0,-456.92 125.54,-143.16 345.27,-157.04 488.27,-31.5 73.3,66.28 115.25,160.47 115.25,258.25l0 -0.01z"/>
  <ellipse class="fil2" cx="1381.53" cy="872.21" rx="87.17" ry="226.75"/>
  <path class="fil3" d="M1294.2 872.21c0,83.59 31.51,163.9 87.33,226.75 -125.69,143.01 -345.42,156.88 -488.42,31.35 -143,-125.54 -157.04,-345.43 -31.5,-488.43 125.69,-143 345.42,-157.04 488.42,-31.34 10.45,10.45 20.9,20.89 31.5,31.34 -55.82,66.28 -87.33,146.59 -87.33,230.34l0 -0.01z"/>
  <path class="fil0" d="M3544.05 0l2033.86 0c202.27,0 362.74,163.9 362.74,362.73l0 1018.81c0,202.26 -163.91,362.73 -362.74,362.73l-2033.86 0c-198.83,0 -362.89,-163.9 -362.89,-362.73l0 -1018.81c0,-198.83 164.06,-362.73 362.89,-362.73z"/>
  <path class="fil4" d="M4325.5 620.98l-209.43 502.31 -135.99 0 -101.21 -397.67c0,-17.46 -13.88,-34.93 -31.35,-45.38 -41.79,-20.89 -83.74,-34.93 -125.53,-41.79l0 -14.03 216.29 0c31.35,0 55.83,20.89 59.26,52.39l52.25 289.6 132.55 -341.99 143.16 -3.44 0 0zm533.65 338.41c0,-132.56 -181.36,-139.57 -181.36,-198.84 0,-17.46 17.46,-38.36 55.82,-41.95 41.8,-3.43 87.18,3.59 125.54,20.9l21.05 -104.64c-38.51,-13.88 -80.31,-20.9 -122.1,-20.9 -125.7,0 -216.3,66.28 -216.3,164.06 0,73.14 62.69,111.5 111.66,135.99 48.81,24.48 66.28,41.79 66.28,62.84 0,34.78 -38.52,48.81 -76.88,48.81 -45.23,0 -90.61,-10.45 -132.56,-31.5l-24.33 108.23c45.38,17.47 94.19,27.91 146.44,24.48 136.14,3.44 226.74,-62.84 226.74,-167.48l0 0 0 0zm334.98 163.9l118.52 0 -104.65 -502.31 -108.07 0c-24.48,0 -45.38,13.88 -55.83,38.36l-191.81 463.95 135.99 0 24.48 -73.3 163.9 0 17.47 73.3 0 0zm-146.59 -177.94l69.86 -188.38 41.79 188.38 -111.65 0zm-540.67 -324.37l-104.64 502.31 -125.54 0 104.64 -502.31 125.54 0z"/>
  <path class="fil0" d="M6721.78 0l2033.71 0c202.42,0 362.89,163.9 362.89,362.73l0 1018.81c0,202.26 -163.9,362.73 -362.89,362.73l-2033.71 0c-202.41,0 -362.89,-163.9 -362.89,-362.73l0 -1018.81c0,-198.83 160.47,-362.73 362.89,-362.73z"/>
  <path class="fil5" d="M7293.8 1234.95l-3.43 24.48c0,13.88 7.01,24.33 20.89,24.33l851.16 0c14.04,0 24.48,-10.45 21.05,-24.33l-3.58 -24.48c-3.44,-20.9 14.03,-38.37 31.5,-41.8 20.89,-3.59 38.36,13.88 41.79,31.35l3.43 24.48c7.02,55.67 -24.33,108.07 -83.58,108.07l-875.65 0c-55.83,0 -90.76,-48.81 -83.74,-108.07l3.43 -24.48c3.59,-20.9 20.9,-34.94 41.95,-31.35 24.33,0 38.36,20.9 34.78,41.8z"/>
  <path class="fil6" d="M8183.47 771c0,34.78 -14.03,55.83 -31.5,76.73l-3.43 3.43 3.43 0c41.95,24.48 69.87,62.85 69.87,115.24 3.43,76.73 -62.85,143.01 -139.58,143.01l-205.85 0c-20.89,0 -34.93,-17.47 -34.93,-38.36l0 -397.82c0,-20.9 17.47,-38.37 34.93,-38.37l170.92 0c73.3,0 136.14,55.83 136.14,136.14l0 0 0 0zm-101.21 265.11c41.8,0 73.3,-31.34 73.3,-69.7 0,-41.95 -38.36,-66.28 -80.31,-66.28l-83.75 0c-17.31,0 -34.77,-14.04 -34.77,-34.93 0,-20.9 13.88,-34.94 34.77,-34.94l55.83 0c38.37,0 66.28,-24.33 69.87,-59.26 3.43,-38.36 -31.5,-66.28 -69.87,-66.28l-135.98 0 0 331.39 170.91 0 0 0z"/>
  <path class="fil6" d="M7520.54 973.27l0 0 0 0c10.45,-27.92 24.49,-55.83 34.94,-87.18 14.03,-34.93 24.48,-66.27 38.36,-94.19 14.03,-31.34 24.48,-59.26 34.93,-83.74 10.45,-24.33 20.9,-41.8 27.92,-48.81 10.45,-14.04 24.32,-20.9 45.38,-20.9l6.86 0c10.45,0 21.05,3.43 27.91,6.86 7.02,7.02 10.45,10.61 10.45,17.47l52.4 411.7c0,10.45 -3.43,17.46 -10.45,24.48 -7.02,6.86 -14.04,6.86 -24.48,6.86 -10.45,0 -20.9,-3.43 -27.92,-6.86 -6.86,-3.59 -10.45,-10.6 -13.88,-21.05 -3.58,-13.88 -3.58,-27.91 -3.58,-45.23 -3.44,-17.46 -10.45,-87.33 -13.88,-108.22 -3.44,-17.47 -17.47,-135.99 -20.9,-177.94l0 -3.43 -17.47 34.93c-7.01,13.88 -10.45,27.92 -17.46,45.23 -7.02,17.46 -13.88,34.93 -20.9,55.83 -7.02,17.46 -41.95,111.66 -41.95,111.66 -3.43,7.01 -10.45,24.48 -13.88,41.95 -7.02,13.88 -10.45,31.34 -10.45,31.34 -7.02,13.88 -24.48,24.33 -41.95,24.33 -20.89,0 -34.77,-10.45 -41.79,-24.33 0,-3.43 -7.02,-17.46 -10.45,-31.34 -7.02,-17.47 -10.45,-31.5 -14.04,-41.95 0,0 -31.34,-94.2 -41.79,-111.66 -7.02,-17.47 -14.04,-38.37 -20.9,-55.83 -7.01,-17.31 -14.03,-31.35 -17.46,-45.23l-17.47 -34.93 0 3.43c-3.43,41.95 -20.9,157.04 -20.9,177.94 -3.58,17.46 -10.45,90.76 -14.03,108.22 0,17.32 -3.43,31.35 -3.43,45.23 0,7.02 -3.43,14.03 -13.88,21.05 -7.02,3.43 -14.04,6.86 -27.92,6.86 -10.6,0 -21.05,-3.43 -24.48,-6.86 -7.02,-7.02 -10.45,-14.03 -10.45,-24.48l55.83 -411.7c0,-6.86 3.43,-13.88 10.45,-17.47 7.02,-6.86 13.88,-6.86 27.91,-6.86l6.87 0c17.46,0 34.93,6.86 45.38,20.9 7.01,10.45 17.46,24.48 27.91,48.81 10.45,24.48 24.48,52.4 34.93,83.74 13.88,31.35 24.49,62.85 38.37,94.19 10.44,31.35 20.89,59.26 31.34,87.18l0 0z"/>
  <path class="fil5" d="M7415.9 387.22l645.47 0c59.26,0 90.6,45.38 97.62,104.64l3.43 20.9c3.59,21.05 -13.88,38.36 -34.77,41.95 -20.9,3.43 -38.37,-14.04 -41.95,-34.94l-3.44 -17.46c-3.43,-24.33 -13.87,-41.8 -34.93,-41.8l-620.98 0c-24.33,0 -31.34,17.47 -34.77,41.8l-3.59 17.46c-3.43,20.9 -20.9,34.94 -41.8,34.94 -20.89,-3.59 -34.93,-20.9 -34.93,-41.95l3.59 -20.9c10.45,-59.26 41.79,-104.64 101.05,-104.64l0 0z"/>
  <path class="fil0" d="M9899.36 0l2033.86 0c202.42,0 362.89,163.9 362.89,362.73l0 1018.81c0,202.26 -164.06,362.73 -362.89,362.73l-2033.86 0c-202.26,0 -362.73,-163.9 -362.73,-362.73l0 -1018.81c0,-198.83 160.47,-362.73 362.73,-362.73z"/>
  <path class="fil7" d="M10105.21 1189.57l-3.43 24.48c0,10.45 7.02,20.9 17.46,20.9l749.95 0c10.45,0 21.06,-10.45 21.06,-20.9l-3.59 -24.48c-3.43,-17.47 10.45,-34.78 27.91,-34.78 17.47,-3.59 34.94,10.45 34.94,27.76l3.43 21.05c7.01,48.81 -20.9,94.19 -73.14,94.19l-771 0c-52.4,0 -80.32,-45.38 -73.3,-94.19l3.43 -21.05c3.59,-17.31 17.47,-31.35 34.93,-27.76 20.9,0 31.35,17.31 31.35,34.78z"/>
  <path class="fil6" d="M10886.66 781.45c0,31.35 -10.45,48.81 -27.91,69.71l-3.43 3.59 3.43 0c34.93,20.89 59.41,55.83 62.84,101.05 3.43,69.87 -55.83,125.69 -122.1,125.69l-181.37 0c-17.47,0 -31.5,-14.03 -31.5,-31.5l0 -352.28c0,-17.47 14.03,-31.35 31.5,-31.35l150.02 0c62.69,-3.58 118.52,45.38 118.52,115.09l0 0 0 0zm-90.61 233.77c34.78,0 66.28,-27.92 66.28,-62.85 0,-34.93 -34.93,-59.26 -69.86,-59.26l-73.3 0c-17.31,0 -27.91,-14.03 -27.91,-31.5 0,-17.31 14.03,-31.35 27.91,-31.35l48.97 0c31.35,0 59.26,-20.89 59.26,-52.24 0,-34.93 -27.91,-59.41 -62.85,-59.41l-118.52 0 0 293.02 150.02 3.59 0 0z"/>
  <path class="fil6" d="M10304.04 959.39l0 0 0 0c10.61,-24.49 21.05,-48.81 31.5,-76.73 10.45,-27.91 20.9,-55.83 31.35,-83.74 10.45,-27.92 20.89,-52.4 31.34,-73.3 10.45,-20.89 17.47,-34.93 24.49,-45.38 10.45,-10.45 24.48,-17.46 38.36,-17.46l7.02 0c10.45,0 17.46,3.58 24.33,7.01 7.01,3.44 7.01,10.45 10.44,17.47l45.38 362.73c0,10.45 -3.43,17.47 -6.86,21.05 -7.01,3.44 -14.03,6.87 -24.48,6.87 -10.45,0 -17.47,-3.44 -24.48,-6.87 -6.87,-3.58 -10.45,-10.44 -10.45,-17.46 0,-10.45 -3.44,-24.49 -3.44,-41.95 -3.43,-13.88 -10.44,-76.73 -10.44,-94.19 -3.44,-17.32 -14.04,-118.52 -20.9,-156.89l0 -3.58 -14.04 31.5c-3.43,10.45 -10.44,24.32 -17.46,38.36 -6.86,13.88 -10.45,31.34 -17.47,48.81 -6.86,17.47 -34.77,97.62 -34.77,97.62 -3.59,7.02 -7.02,20.9 -14.04,34.94 -3.43,13.87 -10.45,27.91 -10.45,27.91 -7.01,13.88 -20.89,24.48 -38.36,24.48 -17.47,0 -31.35,-10.6 -38.36,-24.48 0,-3.43 -7.02,-14.04 -10.45,-27.91 -3.43,-14.04 -10.45,-27.92 -13.88,-34.94 0,0 -27.91,-83.74 -34.93,-97.62 -7.02,-17.47 -10.45,-31.34 -17.47,-48.81 -7.02,-14.04 -10.45,-27.91 -17.47,-38.36l-13.88 -31.5 0 3.58c-3.58,38.37 -17.46,139.57 -21.05,156.89 -3.43,17.46 -10.45,80.31 -10.45,94.19 0,14.03 -3.43,27.91 -3.43,41.95 0,7.02 -3.43,13.88 -10.45,17.46 -7.02,3.44 -14.03,6.87 -24.48,6.87 -10.45,0 -17.47,-3.44 -24.33,-6.87 -7.02,-7.01 -7.02,-14.03 -7.02,-21.05l45.38 -362.73c0,-7.02 3.43,-10.45 10.45,-17.47 7.02,-3.43 13.88,-7.01 24.33,-7.01l7.02 0c17.46,0 27.91,7.01 38.36,17.46 7.02,7.02 14.04,24.49 24.48,45.38 10.45,20.9 20.9,45.38 31.35,73.3 10.45,27.91 20.9,55.83 34.93,83.74 17.47,27.92 24.33,55.83 34.78,76.73l0 0z"/>
  <path class="fil7" d="M10213.44 443.05l568.58 0c52.4,0 80.31,41.79 87.17,94.19l3.59 17.47c3.43,17.46 -10.45,34.93 -27.91,34.93 -17.47,3.43 -34.94,-10.61 -34.94,-27.92l-3.43 -17.46c-3.58,-21.05 -10.45,-34.94 -31.5,-34.94l-547.68 0c-20.9,0 -27.92,14.04 -31.35,34.94l-3.43 17.46c-3.59,17.31 -17.47,31.35 -34.93,27.92 -17.47,-3.59 -31.35,-17.47 -27.92,-34.93l3.43 -17.47c0,-52.4 24.49,-94.19 80.32,-94.19z"/>
  <path class="fil6" d="M11235.51 826.83c-3.43,13.88 -6.86,31.35 -13.88,48.81 -3.58,17.47 -7.01,34.94 -14.03,48.82 -3.43,17.46 -6.86,27.91 -10.45,41.95 -3.43,10.45 -7.02,20.89 -10.45,24.32 -3.43,7.02 -10.45,10.45 -24.33,10.45 -3.58,0 -7.01,0 -10.6,-3.43 -3.43,0 -10.45,-3.59 -13.88,-10.45 -3.43,-3.58 -7.02,-14.03 -10.45,-24.48 -3.59,-13.88 -7.02,-27.91 -10.45,-45.38 -3.59,-17.31 -7.02,-34.78 -14.03,-52.24 -3.43,-17.47 -6.86,-34.94 -10.45,-52.4 -3.43,-17.47 -7.02,-27.91 -7.02,-41.8 -3.43,-10.44 -3.43,-17.46 -3.43,-20.89l0 -3.59 0 0c0,-3.43 0,-6.86 7.02,-10.45 3.43,-3.43 7.01,-3.43 13.88,-3.43 3.58,0 10.44,0 10.44,3.43 3.59,3.59 3.59,7.02 7.02,10.45 0,0 0,3.59 3.43,10.45 0,7.02 3.59,17.47 7.02,27.91 3.59,10.45 3.59,24.49 7.02,38.37 3.43,14.03 7.02,27.91 10.45,45.38 3.43,14.03 7.01,27.91 10.45,41.95 3.58,13.88 7.01,24.33 10.45,34.77 3.58,-10.45 7.01,-20.89 10.44,-31.34 3.59,-10.45 7.02,-24.49 10.45,-38.37 3.59,-14.03 7.02,-24.48 10.61,-38.36 3.43,-14.03 6.86,-24.48 6.86,-34.93 3.59,-10.45 3.59,-20.9 7.02,-27.92 3.43,-7.01 3.43,-13.87 3.43,-17.46 0,-3.43 3.59,-10.45 7.02,-13.88 3.58,-3.43 7.01,-3.43 14.03,-3.43 6.86,0 10.45,0 13.88,3.43 3.43,3.43 7.02,7.02 7.02,10.45 3.43,13.88 7.01,27.91 10.45,45.38 3.43,17.47 7.01,34.93 10.45,52.24 3.43,17.47 7.01,34.93 10.44,48.97 3.44,17.31 7.02,31.34 10.45,45.22 3.59,-10.45 7.02,-20.89 10.45,-34.77 3.59,-14.04 7.02,-27.92 10.45,-41.95 3.59,-13.88 7.02,-27.92 10.45,-41.8 3.59,-14.03 7.02,-27.91 7.02,-38.36 3.59,-10.45 3.59,-21.05 7.02,-27.91 0,-7.02 3.43,-10.45 3.43,-10.45 0,-3.59 3.58,-10.45 7.01,-10.45 3.44,-3.59 7.02,-3.59 10.45,-3.59 3.59,0 10.45,0 14.04,3.59 3.43,3.43 6.86,6.86 6.86,10.45l0 0c0,0 0,0 0,3.43 0,3.43 0,10.45 -3.43,20.89 -3.43,10.45 -3.43,24.49 -7.02,41.96 -3.43,17.46 -6.86,31.34 -10.45,52.24 -3.43,17.46 -7.02,34.93 -10.45,52.39 -3.43,17.47 -7.01,31.35 -10.45,45.38 -3.43,13.88 -7.01,20.9 -10.45,24.33 -3.43,7.02 -7.01,10.45 -14.03,10.45 -3.43,0 -10.45,3.59 -13.88,3.59l-3.43 0c-3.59,0 -3.59,0 -7.02,0 -3.43,0 -3.43,-3.59 -7.02,-3.59 -3.43,-3.43 -3.43,-3.43 -7.01,-7.02 -3.43,-3.43 -6.86,-13.87 -10.45,-24.32 -3.43,-10.45 -6.86,-24.49 -10.45,-41.95 -3.43,-13.88 -6.86,-31.35 -10.45,-48.82 -10.45,-20.89 -13.88,-38.36 -17.47,-52.24z"/>
  <path class="fil6" d="M11546 889.52c-7.01,-17.31 -10.45,-34.77 -17.46,-48.81 -6.86,-13.88 -10.45,-27.91 -17.31,-41.79 0,-3.59 -3.59,-7.02 -3.59,-10.45 0,-3.59 -3.43,-7.02 -3.43,-7.02 0,0 0,3.43 -3.59,7.02 0,3.43 -3.43,6.86 -3.43,10.45 -7.02,13.88 -10.45,27.91 -17.47,41.79 -3.43,14.04 -10.45,31.5 -17.46,48.81l83.74 0 0 0zm-94.19 34.94c-3.43,14.03 -7.02,24.48 -10.45,38.36 -3.43,10.45 -7.02,20.9 -10.45,27.91 -3.43,7.02 -10.45,10.45 -17.46,10.45 -7.02,0 -10.45,0 -13.88,-3.43 -3.59,-3.59 -3.59,-7.02 -3.59,-14.03 0,-3.44 0,-3.44 0,-6.87 0,0 3.59,-7.01 3.59,-17.46 3.43,-10.45 6.86,-20.9 10.45,-34.94 3.43,-13.87 10.45,-31.34 13.88,-48.81 7.01,-17.46 10.44,-34.93 17.46,-52.39 7.02,-17.32 10.45,-31.35 17.47,-45.23 7.02,-14.03 10.45,-27.91 17.47,-34.93 3.43,-3.59 3.43,-7.02 10.44,-10.45 3.44,0 10.45,-3.59 13.88,-3.59 7.02,0 10.45,0 14.04,3.59 3.43,3.43 7.02,6.86 10.45,10.45 3.43,7.02 7.01,20.89 13.88,34.93 7.01,13.88 10.6,27.91 17.46,45.23 7.02,17.46 10.45,31.5 17.47,48.96 7.02,17.31 10.45,31.35 17.47,45.23 3.43,14.03 10.44,27.91 13.87,38.36 3.59,10.45 7.02,17.47 7.02,21.05 0,0 0,3.43 0,6.86 0,3.59 0,10.45 -3.43,14.04 -3.59,3.43 -7.02,3.43 -14.03,3.43 -3.44,0 -6.87,0 -10.45,-3.43 -3.44,-3.59 -3.44,-3.59 -7.02,-10.45 -3.43,-7.02 -6.86,-17.47 -10.45,-27.91 -3.43,-10.45 -6.86,-24.49 -10.45,-38.37l-104.64 0 0 3.43 0 0.01zm0 0l0 0 0 0z"/>
  <path class="fil6" d="M11685.58 896.54l-3.44 -3.43c0,0 -3.58,-3.59 -3.58,-7.02 -3.43,-7.02 -6.86,-10.45 -13.88,-20.89 -3.59,-7.02 -10.45,-17.47 -14.04,-24.49 -3.43,-10.45 -10.45,-17.46 -13.88,-27.91 -3.58,-10.45 -7.01,-17.47 -10.45,-24.33 -3.58,-7.02 -7.01,-14.04 -10.44,-21.05 -3.59,-6.86 -3.59,-10.45 -3.59,-10.45l0 -3.43c0,0 0,0 0,-3.43 0,-3.59 0,-10.61 3.59,-14.04 3.43,-3.43 6.86,-3.43 13.87,-3.43 7.02,0 10.45,0 10.45,3.43 3.59,3.43 3.59,7.02 3.59,7.02 0,0 3.43,3.43 3.43,10.45 3.43,3.43 3.43,10.45 7.02,17.46 3.43,7.02 6.86,13.88 10.45,24.33 3.43,7.02 6.86,17.47 10.45,24.49 3.43,7.01 7.02,13.87 10.45,24.48 3.43,6.86 7.01,13.88 10.45,17.31 7.01,-6.86 10.45,-17.31 17.46,-31.35 7.02,-10.44 10.45,-24.48 17.47,-34.93 6.86,-10.45 10.45,-20.9 13.88,-31.34 3.59,-10.45 7.02,-13.88 7.02,-17.47 0,-3.43 3.43,-7.02 3.43,-7.02 3.58,-3.43 7.01,-3.43 10.45,-3.43 7.01,0 10.45,0 14.03,3.43 3.43,3.59 3.43,7.02 3.43,14.04l0 3.43c0,0 0,0 0,3.59 0,3.43 -3.43,6.86 -3.43,10.44 -3.59,6.87 -7.02,13.88 -10.45,20.9 -3.59,7.02 -7.02,17.47 -10.45,24.49 -3.58,10.44 -10.45,17.31 -14.03,27.75 -3.43,10.61 -10.45,17.47 -13.88,24.49 -3.59,7.01 -10.45,14.03 -14.04,20.89 -3.43,3.59 -3.43,7.02 -7.01,10.45l0 87.33c0,6.86 0,10.45 -6.86,13.88 -3.59,3.43 -7.02,3.43 -14.04,3.43 -7.02,0 -10.45,-3.43 -13.88,-3.43 -3.59,-3.43 -3.59,-7.02 -3.59,-13.88l0 -90.76 14.04 0 0 0zm0 0l0 0 0 0z"/>
  <path class="fil0" d="M15110.95 0l-2033.86 0c-202.26,0 -362.73,163.9 -362.73,362.73l0 1018.81c0,202.26 163.9,362.73 362.73,362.73l2033.86 0c202.42,0 362.89,-163.9 362.89,-362.73l0 -1018.65c0,-198.99 -164.06,-362.89 -362.89,-362.89l0 0z"/>
  <path class="fil8" d="M13467.89 652.33c-27.91,-27.91 -69.7,-41.8 -108.22,-38.36l-146.44 0c-10.44,0 -20.89,7.01 -20.89,17.46l-66.28 383.79c0,6.86 3.43,13.88 10.45,13.88l0 0 73.29 0c10.45,0 17.31,-7.02 20.9,-13.88l17.47 -104.64c0,-10.45 10.45,-17.47 20.89,-17.47l48.82 0c83.74,10.45 160.46,-52.4 170.91,-136.14 0,-3.43 0,-6.86 0,-10.45 7.02,-31.35 0,-66.28 -20.89,-94.19l-0.01 0zm-90.76 101.21c-6.86,52.4 -48.81,52.4 -87.17,52.4l-20.9 0 13.88 -101.21c0,-7.02 7.02,-10.45 14.04,-10.45l10.44 0c27.92,0 52.25,0 66.28,13.88 3.43,17.46 7.02,31.34 3.43,45.38l0 0z"/>
  <path class="fil8" d="M13809.73 753.54l-73.3 0c-6.86,0 -10.44,3.43 -13.87,10.45l0 20.89 -3.44 -6.86c-21.05,-21.05 -52.39,-34.93 -83.74,-31.5 -83.74,3.59 -150.02,62.85 -160.47,146.59 -7.02,38.36 3.43,80.16 27.92,111.66 24.32,24.33 55.83,38.36 90.6,34.77 38.36,0 73.3,-13.87 97.78,-41.79l0 20.9c0,7.01 3.43,14.03 10.45,14.03l66.28 0c10.45,0 20.89,-7.02 20.89,-17.47l38.37 -247.79c3.43,-6.87 0,-13.88 -7.02,-13.88 -6.86,-3.43 -10.45,-3.43 -10.45,0l0 0zm-181.37 209.28c-17.46,0 -34.93,-7.02 -48.81,-17.47 -10.45,-13.88 -14.03,-34.77 -10.45,-52.24 3.43,-41.95 38.37,-73.29 80.16,-73.29 17.47,0 34.93,7.01 48.81,20.89 10.45,14.04 17.47,31.5 14.04,52.4 -7.02,38.36 -45.38,69.71 -83.75,69.71l0 0z"/>
  <path class="fil8" d="M14190.08 753.54l-73.29 0c-7.02,0 -14.04,3.43 -17.47,10.45l-101.21 146.59 -38.36 -143.16c-3.43,-10.45 -10.45,-13.88 -20.9,-13.88l-73.29 0c-7.02,0 -13.88,7.02 -13.88,13.88l0 3.58 80.16 233.77 -73.3 104.64c-3.43,6.86 -3.43,13.88 3.59,17.47 3.43,0 3.43,3.43 7.02,3.43l73.14 0c7.01,0 14.03,-3.43 17.46,-7.02l240.78 -348.85c3.44,-7.02 0,-13.88 -10.45,-20.9 3.44,0 3.44,0 0,0l0 0z"/>
  <path class="fil9" d="M14538.94 652.33c-27.91,-27.91 -69.86,-41.8 -108.23,-38.36l-150.02 0c-10.45,0 -17.47,7.01 -20.9,17.46l-62.84 383.79c0,6.86 3.59,13.88 10.45,13.88l0 0 76.88 0c6.86,0 13.88,-7.02 13.88,-13.88l17.46 -108.23c0,-10.45 10.45,-17.47 20.9,-17.47l48.81 0c83.75,10.61 160.47,-52.24 170.92,-135.98 0,-3.43 0,-3.43 0,-7.02 7.02,-31.34 3.59,-66.28 -17.31,-94.19zm-90.76 104.64c-7.02,52.4 -48.81,52.4 -87.18,52.4l-21.05 0 17.47 -101.21c0,-7.02 7.01,-10.45 14.03,-10.45l0 0 10.45 0c27.91,0 52.24,0 66.28,14.03 0,13.88 3.43,27.76 0,45.23l0 0 0 0z"/>
  <path class="fil9" d="M14877.19 753.54l-73.14 0c-7.02,0 -10.45,3.43 -14.04,10.45l0 20.89 -3.43 -6.86c-20.9,-21.05 -52.4,-34.93 -83.74,-31.5 -83.75,3.59 -150.02,62.85 -160.47,146.59 -7.02,38.36 0,80.16 27.91,111.66 24.33,24.33 55.83,38.36 90.76,34.77 38.37,0 73.14,-13.87 101.06,-41.79l0 20.9c0,7.01 3.58,14.03 10.45,14.03l0 0 66.27 0c10.61,0 17.47,-7.02 21.06,-17.47l34.77 -247.79c0,-6.87 -3.43,-13.88 -10.45,-13.88 -3.43,0 -3.43,0 -7.01,0l0 0zm-181.37 209.28c-17.46,0 -34.77,-7.02 -48.81,-17.47 -10.45,-13.88 -13.88,-34.77 -10.45,-52.24 3.43,-41.95 38.36,-73.29 80.16,-73.29 31.5,-3.44 59.41,20.89 62.85,52.39 0,6.86 0,13.88 -3.44,20.9 -3.58,41.79 -38.36,69.71 -80.31,69.71l0 0z"/>
  <path class="fil9" d="M15044.68 613.97l-73.3 0c-6.86,0 -10.45,3.58 -13.88,10.45l-55.83 394.23c0,7.02 3.43,14.03 10.45,14.03 0,0 0,0 3.59,0l62.69 0c10.45,0 17.46,-7.01 20.89,-17.46l59.42 -387.22c0,-7.01 -7.02,-14.03 -14.03,-14.03l0 0 0 0z"/>
  <path class="fil10" d="M18288.68 0l-2033.86 0c-202.26,0 -362.73,163.9 -362.73,362.73l0 1018.81c0,202.26 163.9,362.73 362.73,362.73l2033.86 0c202.42,0 362.89,-163.9 362.89,-362.73l0 -1018.65c0,-198.99 -164.05,-362.89 -362.89,-362.89l0 0z"/>
  <path class="fil11" d="M18337.25 994.89c-35.51,0 -64.29,29.15 -64.29,65.02 0,35.92 28.78,65.1 64.29,65.1 35.57,0 64.36,-29.15 64.36,-65.1 0.03,-0.14 0.03,-0.25 0.03,-0.33 0,-35.6 -28.76,-64.55 -64.39,-64.74l0 0.05zm-211.6 -50.3c0,-49.29 -41.54,-89.15 -92.86,-89.15 -51.33,0 -92.87,39.86 -92.87,89.07 0,49.2 41.54,89.14 92.87,89.14 51.32,0 92.86,-39.94 92.86,-89.14l0 0.08zm0.36 -173.17l102.48 0 0 346.23 -102.48 -0.03 0 -22.09c-29.78,20.63 -65.24,31.71 -101.49,31.71 -0.03,0 -0.08,0 -0.11,0 -99.78,0 -180.61,-81.8 -180.61,-182.73 0,-100.89 80.91,-182.65 180.61,-182.65 37.69,0 72.59,11.65 101.6,31.71l0 -22.15zm-820.21 45.09l0 -45.12 -104.96 0.03 0 346.23 105.18 -0.03 0 -161.6c0,-54.6 58.46,-83.83 99.06,-83.83l1.16 0.03 0 -100.75c-41.54,0 -79.89,18.02 -100.44,45.04zm-261.39 128c0,-49.21 -41.54,-89.07 -92.86,-89.07 -51.24,0 -92.87,39.86 -92.87,89.07 0,49.2 41.54,89.14 92.87,89.14 51.32,0 92.86,-39.94 92.86,-89.14zm0.36 -173.09l102.48 0 0 346.23 -102.48 -0.03 0 -22.09c-29.75,20.63 -65.21,31.71 -101.46,31.71 -0.05,0 -0.17,0 -0.19,0 -99.73,0 -180.61,-81.8 -180.61,-182.73 0,-100.89 80.91,-182.65 180.61,-182.65 37.68,0 72.67,11.65 101.6,31.71l0 -22.15 0.05 0zm616.88 -9.34c-40.89,0 -79.68,12.89 -105.54,48.32l0 -39.01 -102.04 0.03 0 346.23 103.28 -0.03 0 -181.93c0,-52.62 34.9,-78.43 76.88,-78.43 45.05,0 70.92,27.27 70.92,77.69l0 182.73 102.42 0.03 0 -220.2c0,-80.61 -63.42,-135.43 -145.92,-135.43zm-1048.38 355.71l107.28 0 0 -500.76 -107.28 0 0 500.62 0 0.14zm-471.25 0l113.59 0 0 -500.76 -113.59 0 0 500.76zm397.26 -500.76c0.03,0.66 0.03,1.49 0.03,2.18 0,105.62 -41.77,207.11 -116.12,282.1l157 216.48 -140.34 0 -170.63 -235.3 44.02 -33.39c72.4,-54.49 115.02,-139.92 115.02,-230.52 0,-0.5 0,-1.05 0,-1.55l111.02 0z"/>
 </g>
</svg>
