<?xml version="1.0" encoding="UTF-8"?>
<!DOCTYPE svg PUBLIC "-//W3C//DTD SVG 1.1//EN" "http://www.w3.org/Graphics/SVG/1.1/DTD/svg11.dtd">
<!-- Creator: CorelDRAW 2021.5 -->
<svg xmlns="http://www.w3.org/2000/svg" xml:space="preserve" width="1113.66mm" height="104.148mm" version="1.1" style="shape-rendering:geometricPrecision; text-rendering:geometricPrecision; image-rendering:optimizeQuality; fill-rule:evenodd; clip-rule:evenodd"
viewBox="0 0 84534.94 7905.58"
 xmlns:xlink="http://www.w3.org/1999/xlink"
 xmlns:xodm="http://www.corel.com/coreldraw/odm/2003">
 <defs>
  <style type="text/css">
   <![CDATA[
    .fil10 {fill:none;fill-rule:nonzero}
    .fil6 {fill:black;fill-rule:nonzero}
    .fil4 {fill:#122A96;fill-rule:nonzero}
    .fil9 {fill:#179BD7;fill-rule:nonzero}
    .fil8 {fill:#253B80;fill-rule:nonzero}
    .fil5 {fill:#2765AF;fill-rule:nonzero}
    .fil7 {fill:#D72027;fill-rule:nonzero}
    .fil3 {fill:#EB001B;fill-rule:nonzero}
    .fil1 {fill:#F79E1B;fill-rule:nonzero}
    .fil2 {fill:#FF5F00;fill-rule:nonzero}
    .fil0 {fill:white;fill-rule:nonzero}
   ]]>
  </style>
   <clipPath id="id0" style="clip-rule:nonzero">
    <path d="M82890.21 0.01l-9218.12 0c-916.72,0 -1644.02,742.85 -1644.02,1644.02l0 4617.54c0,916.72 742.85,1644.02 1644.02,1644.02l9218.12 0c917.43,0 1644.73,-742.85 1644.73,-1644.02l0 -4616.84c0,-901.88 -743.56,-1644.73 -1644.73,-1644.73l0 0.01z"/>
   </clipPath>
    <clipPath id="id1">
     <path d="M82890.21 0.01l-9218.12 0c-311.72,0 -601.48,85.96 -848.25,234.77l0 7435.55c248.35,149.58 538.97,235.26 848.25,235.26l9218.12 0c312.04,0 602.03,-86.01 848.95,-234.89l0 -7431.5c-248.57,-151.58 -539.46,-239.2 -848.95,-239.2l0 0.01z"/>
    </clipPath>
    <clipPath id="id2">
     <path d="M82890.21 0.01l-9218.12 0c-916.72,0 -1644.02,742.85 -1644.02,1644.02l0 4617.54c0,916.72 742.85,1644.02 1644.02,1644.02l9218.12 0c917.43,0 1644.73,-742.85 1644.73,-1644.02l0 -4616.84c0,-901.88 -743.56,-1644.73 -1644.73,-1644.73l0 0.01z"/>
    </clipPath>
 </defs>
 <g id="Layer_x0020_1">
  <metadata id="CorelCorpID_0Corel-Layer"/>
  <path class="fil0" d="M10878.39 0.01l-9218.12 0c-917.43,0 -1660.28,742.85 -1660.28,1644.02l0 4617.54c0,901.18 742.85,1644.02 1660.28,1644.02l9218.12 0c916.72,0 1644.02,-742.85 1644.02,-1644.02l0 -4617.54c0,-901.18 -742.85,-1644.02 -1644.02,-1644.02z"/>
  <path class="fil1" d="M8996.89 3953.16c0,869.36 -696.2,1564.86 -1565.57,1564.86 -442.45,0 -869.36,-189.43 -1169.76,-521.62 521.62,-585.24 521.62,-1470.15 0,-2070.93 568.98,-648.85 1564.86,-711.75 2212.99,-142.77 332.2,300.39 522.32,727.3 522.32,1170.46l0.01 -0.01z"/>
  <ellipse class="fil2" cx="6261.56" cy="3953.16" rx="395.1" ry="1027.69"/>
  <path class="fil3" d="M5865.75 3953.16c0,378.84 142.77,742.85 395.81,1027.69 -569.68,648.14 -1565.57,711.04 -2213.7,142.07 -648.14,-568.98 -711.75,-1565.57 -142.77,-2213.7 569.68,-648.14 1565.57,-711.75 2213.7,-142.07 47.36,47.36 94.71,94.71 142.77,142.07 -253.04,300.39 -395.81,664.39 -395.81,1043.95l0 -0.01z"/>
  <path class="fil0" d="M16062.79 0.01l9218.12 0c916.72,0 1644.02,742.85 1644.02,1644.02l0 4617.54c0,916.72 -742.85,1644.02 -1644.02,1644.02l-9218.12 0c-901.18,0 -1644.73,-742.85 -1644.73,-1644.02l0 -4617.54c0,-901.18 743.56,-1644.02 1644.73,-1644.02z"/>
  <path class="fil4" d="M19604.57 2814.5l-949.23 2276.61 -616.34 0 -458.71 -1802.35c0,-79.16 -62.9,-158.33 -142.07,-205.68 -189.43,-94.71 -379.55,-158.33 -568.98,-189.43l0 -63.61 980.33 0c142.07,0 253.04,94.71 268.58,237.48l236.78 1312.53 600.78 -1550.01 648.85 -15.55 0.01 0zm2418.67 1533.76c0,-600.78 -822.01,-632.59 -822.01,-901.18 0,-79.16 79.16,-173.87 253.04,-190.13 189.43,-15.55 395.1,16.26 568.98,94.71l95.42 -474.27c-174.58,-62.9 -364,-94.71 -553.42,-94.71 -569.68,0 -980.33,300.39 -980.33,743.56 0,331.49 284.14,505.37 506.07,616.34 221.23,110.97 300.39,189.43 300.39,284.84 0,157.61 -174.58,221.23 -348.45,221.23 -204.97,0 -410.65,-47.36 -600.78,-142.77l-110.26 490.52c205.68,79.16 426.91,126.51 663.69,110.97 617.04,15.55 1027.69,-284.84 1027.69,-759.11l0 0 -0.01 0.01zm1518.21 742.85l537.17 0 -474.27 -2276.61 -489.81 0c-110.97,0 -205.68,62.9 -253.04,173.87l-869.36 2102.74 616.34 0 110.97 -332.2 742.85 0 79.16 332.2 -0.01 0zm-664.39 -806.46l316.65 -853.82 189.43 853.82 -506.07 0zm-2450.49 -1470.15l-474.27 2276.61 -568.98 0 474.27 -2276.61 568.98 0z"/>
  <path class="fil0" d="M30465.3 0.01l9217.4 0c917.43,0 1644.73,742.85 1644.73,1644.02l0 4617.54c0,916.72 -742.85,1644.02 -1644.73,1644.02l-9217.4 0c-917.43,0 -1644.73,-742.85 -1644.73,-1644.02l0 -4617.54c0,-901.18 727.3,-1644.02 1644.73,-1644.02z"/>
  <path class="fil5" d="M33057.84 5597.17l-15.55 110.97c0,62.9 31.81,110.26 94.71,110.26l3857.73 0c63.61,0 110.97,-47.36 95.42,-110.26l-16.26 -110.97c-15.55,-94.71 63.61,-173.87 142.77,-189.43 94.71,-16.26 173.87,62.9 189.43,142.07l15.55 110.97c31.81,252.33 -110.26,489.81 -378.84,489.81l-3968.69 0c-253.04,0 -411.36,-221.23 -379.55,-489.81l15.55 -110.97c16.26,-94.71 94.71,-158.33 190.13,-142.07 110.26,0 173.87,94.71 157.61,189.43z"/>
  <path class="fil6" d="M37090.15 3494.44c0,157.61 -63.61,253.04 -142.77,347.75l-15.55 15.55 15.55 0c190.13,110.97 316.65,284.84 316.65,522.32 15.55,347.75 -284.84,648.14 -632.59,648.14l-932.98 0c-94.71,0 -158.33,-79.16 -158.33,-173.87l0 -1803.05c0,-94.71 79.16,-173.87 158.33,-173.87l774.65 0c332.2,0 617.04,253.04 617.04,617.04l0 0 0 -0.01zm-458.71 1201.57c189.43,0 332.2,-142.07 332.2,-315.94 0,-190.13 -173.87,-300.39 -364,-300.39l-379.55 0c-78.46,0 -157.61,-63.61 -157.61,-158.33 0,-94.71 62.9,-158.33 157.61,-158.33l253.04 0c173.87,0 300.39,-110.26 316.65,-268.58 15.55,-173.87 -142.77,-300.39 -316.65,-300.39l-616.34 0 0 1501.96 774.65 0 0 0.01z"/>
  <path class="fil6" d="M34085.53 4411.16l0 0 0 0c47.36,-126.51 110.97,-253.04 158.33,-395.1 63.61,-158.33 110.97,-300.39 173.87,-426.91 63.61,-142.07 110.97,-268.58 158.33,-379.55 47.36,-110.26 94.71,-189.43 126.51,-221.23 47.36,-63.61 110.26,-94.71 205.68,-94.71l31.1 0c47.36,0 95.42,15.55 126.51,31.1 31.81,31.81 47.36,48.06 47.36,79.16l237.48 1865.96c0,47.36 -15.55,79.16 -47.36,110.97 -31.81,31.1 -63.61,31.1 -110.97,31.1 -47.36,0 -94.71,-15.55 -126.51,-31.1 -31.1,-16.26 -47.36,-48.06 -62.9,-95.42 -16.26,-62.9 -16.26,-126.51 -16.26,-204.97 -15.55,-79.16 -47.36,-395.81 -62.9,-490.52 -15.55,-79.16 -79.16,-616.34 -94.71,-806.46l0 -15.55 -79.16 158.33c-31.81,62.9 -47.36,126.51 -79.16,204.97 -31.81,79.16 -62.9,158.33 -94.71,253.04 -31.81,79.16 -190.13,506.07 -190.13,506.07 -15.55,31.81 -47.36,110.97 -62.9,190.13 -31.81,62.9 -47.36,142.07 -47.36,142.07 -31.81,62.9 -110.97,110.26 -190.13,110.26 -94.71,0 -157.61,-47.36 -189.43,-110.26 0,-15.55 -31.81,-79.16 -47.36,-142.07 -31.81,-79.16 -47.36,-142.77 -63.61,-190.13 0,0 -142.07,-426.91 -189.43,-506.07 -31.81,-79.16 -63.61,-173.87 -94.71,-253.04 -31.81,-78.46 -63.61,-142.07 -79.16,-204.97l-79.16 -158.33 0 15.55c-15.55,190.13 -94.71,711.75 -94.71,806.46 -16.26,79.16 -47.36,411.36 -63.61,490.52 0,78.46 -15.55,142.07 -15.55,204.97 0,31.81 -15.55,63.61 -62.9,95.42 -31.81,15.55 -63.61,31.1 -126.51,31.1 -48.06,0 -95.42,-15.55 -110.97,-31.1 -31.81,-31.81 -47.36,-63.61 -47.36,-110.97l253.04 -1865.96c0,-31.1 15.55,-62.9 47.36,-79.16 31.81,-31.1 62.9,-31.1 126.51,-31.1l31.1 0c79.16,0 158.33,31.1 205.68,94.71 31.81,47.36 79.16,110.97 126.51,221.23 47.36,110.97 110.97,237.48 158.33,379.55 62.9,142.07 110.97,284.84 173.87,426.91 47.36,142.07 94.71,268.58 142.07,395.1l0.02 0z"/>
  <path class="fil5" d="M33611.27 1755l2925.45 0c268.58,0 410.65,205.68 442.45,474.27l15.55 94.71c16.26,95.42 -62.9,173.87 -157.61,190.13 -94.71,15.55 -173.87,-63.61 -190.13,-158.33l-15.55 -79.16c-15.55,-110.26 -62.9,-189.43 -158.33,-189.43l-2814.48 0c-110.26,0 -142.07,79.16 -157.61,189.43l-16.26 79.16c-15.55,94.71 -94.71,158.33 -189.43,158.33 -94.71,-16.26 -158.33,-94.71 -158.33,-190.13l16.26 -94.71c47.36,-268.58 189.43,-474.27 458.01,-474.27l0.01 0z"/>
  <path class="fil0" d="M44867.09 0.01l9218.12 0c917.43,0 1644.73,742.85 1644.73,1644.02l0 4617.54c0,916.72 -743.56,1644.02 -1644.73,1644.02l-9218.12 0c-916.72,0 -1644.02,-742.85 -1644.02,-1644.02l0 -4617.54c0,-901.18 727.3,-1644.02 1644.02,-1644.02z"/>
  <path class="fil7" d="M45800.07 5391.5l-15.55 110.97c0,47.36 31.81,94.71 79.16,94.71l3399.01 0c47.36,0 95.42,-47.36 95.42,-94.71l-16.26 -110.97c-15.55,-79.16 47.36,-157.61 126.51,-157.61 79.16,-16.26 158.33,47.36 158.33,125.81l15.55 95.42c31.81,221.23 -94.71,426.91 -331.49,426.91l-3494.43 0c-237.48,0 -364,-205.68 -332.2,-426.91l15.55 -95.42c16.26,-78.46 79.16,-142.07 158.33,-125.81 94.71,0 142.07,78.46 142.07,157.61z"/>
  <path class="fil6" d="M49341.86 3541.79c0,142.07 -47.36,221.23 -126.51,315.94l-15.55 16.26 15.55 0c158.33,94.71 269.29,253.04 284.84,458.01 15.55,316.65 -253.04,569.68 -553.42,569.68l-822.01 0c-79.16,0 -142.77,-63.61 -142.77,-142.77l0 -1596.67c0,-79.16 63.61,-142.07 142.77,-142.07l679.95 0c284.14,-16.26 537.17,205.68 537.17,521.62l0 0 -0.01 0zm-410.66 1059.5c157.61,0 300.39,-126.51 300.39,-284.84 0,-158.33 -158.33,-268.58 -316.65,-268.58l-332.2 0c-78.46,0 -126.51,-63.61 -126.51,-142.77 0,-78.46 63.61,-142.07 126.51,-142.07l221.94 0c142.07,0 268.58,-94.71 268.58,-236.78 0,-158.33 -126.51,-269.29 -284.84,-269.29l-537.17 0 0 1328.08 679.95 16.26 0 -0.01z"/>
  <path class="fil6" d="M46701.24 4348.25l0 0 0 0c48.06,-110.97 95.42,-221.23 142.77,-347.75 47.36,-126.51 94.71,-253.04 142.07,-379.55 47.36,-126.51 94.71,-237.48 142.07,-332.2 47.36,-94.71 79.16,-158.33 110.97,-205.68 47.36,-47.36 110.97,-79.16 173.87,-79.16l31.81 0c47.36,0 79.16,16.26 110.26,31.81 31.81,15.55 31.81,47.36 47.36,79.16l205.68 1644.02c0,47.36 -15.55,79.16 -31.1,95.42 -31.81,15.55 -63.61,31.1 -110.97,31.1 -47.36,0 -79.16,-15.55 -110.97,-31.1 -31.1,-16.26 -47.36,-47.36 -47.36,-79.16 0,-47.36 -15.55,-110.97 -15.55,-190.13 -15.55,-62.9 -47.36,-347.75 -47.36,-426.91 -15.55,-78.46 -63.61,-537.17 -94.71,-711.04l0 -16.26 -63.61 142.77c-15.55,47.36 -47.36,110.26 -79.16,173.87 -31.1,62.9 -47.36,142.07 -79.16,221.23 -31.1,79.16 -157.61,442.45 -157.61,442.45 -16.26,31.81 -31.81,94.71 -63.61,158.33 -15.55,62.9 -47.36,126.51 -47.36,126.51 -31.81,62.9 -94.71,110.97 -173.87,110.97 -79.16,0 -142.07,-48.06 -173.87,-110.97 0,-15.55 -31.81,-63.61 -47.36,-126.51 -15.55,-63.61 -47.36,-126.51 -62.9,-158.33 0,0 -126.51,-379.55 -158.33,-442.45 -31.81,-79.16 -47.36,-142.07 -79.16,-221.23 -31.81,-63.61 -47.36,-126.51 -79.16,-173.87l-62.9 -142.77 0 16.26c-16.26,173.87 -79.16,632.59 -95.42,711.04 -15.55,79.16 -47.36,364 -47.36,426.91 0,63.61 -15.55,126.51 -15.55,190.13 0,31.81 -15.55,62.9 -47.36,79.16 -31.81,15.55 -63.61,31.1 -110.97,31.1 -47.36,0 -79.16,-15.55 -110.26,-31.1 -31.81,-31.81 -31.81,-63.61 -31.81,-95.42l205.68 -1644.02c0,-31.81 15.55,-47.36 47.36,-79.16 31.81,-15.55 62.9,-31.81 110.26,-31.81l31.81 0c79.16,0 126.51,31.81 173.87,79.16 31.81,31.81 63.61,110.97 110.97,205.68 47.36,94.71 94.71,205.68 142.07,332.2 47.36,126.51 94.71,253.04 158.33,379.55 79.16,126.51 110.26,253.04 157.61,347.75l0.02 0z"/>
  <path class="fil7" d="M46290.59 2008.03l2577 0c237.48,0 364,189.43 395.1,426.91l16.26 79.16c15.55,79.16 -47.36,158.33 -126.51,158.33 -79.16,15.55 -158.33,-48.06 -158.33,-126.51l-15.55 -79.16c-16.26,-95.42 -47.36,-158.33 -142.77,-158.33l-2482.29 0c-94.71,0 -126.51,63.61 -142.07,158.33l-15.55 79.16c-16.26,78.46 -79.16,142.07 -158.33,126.51 -79.16,-16.26 -142.07,-79.16 -126.51,-158.33l15.55 -79.16c0,-237.48 110.97,-426.91 364,-426.91z"/>
  <path class="fil6" d="M50922.97 3747.47c-15.55,62.9 -31.1,142.07 -62.9,221.23 -16.26,79.16 -31.81,158.33 -63.61,221.23 -15.55,79.16 -31.1,126.51 -47.36,190.13 -15.55,47.36 -31.81,94.71 -47.36,110.26 -15.55,31.81 -47.36,47.36 -110.26,47.36 -16.26,0 -31.81,0 -48.06,-15.55 -15.55,0 -47.36,-16.26 -62.9,-47.36 -15.55,-16.26 -31.81,-63.61 -47.36,-110.97 -16.26,-62.9 -31.81,-126.51 -47.36,-205.68 -16.26,-78.46 -31.81,-157.61 -63.61,-236.78 -15.55,-79.16 -31.1,-158.33 -47.36,-237.48 -15.55,-79.16 -31.81,-126.51 -31.81,-189.43 -15.55,-47.36 -15.55,-79.16 -15.55,-94.71l0 -16.26 0 0c0,-15.55 0,-31.1 31.81,-47.36 15.55,-15.55 31.81,-15.55 62.9,-15.55 16.26,0 47.36,0 47.36,15.55 16.26,16.26 16.26,31.81 31.81,47.36 0,0 0,16.26 15.55,47.36 0,31.81 16.26,79.16 31.81,126.51 16.26,47.36 16.26,110.97 31.81,173.87 15.55,63.61 31.81,126.51 47.36,205.68 15.55,63.61 31.81,126.51 47.36,190.13 16.26,62.9 31.81,110.26 47.36,157.61 16.26,-47.36 31.81,-94.71 47.36,-142.07 16.26,-47.36 31.81,-110.97 47.36,-173.87 16.26,-63.61 31.81,-110.97 48.06,-173.87 15.55,-63.61 31.1,-110.97 31.1,-158.33 16.26,-47.36 16.26,-94.71 31.81,-126.51 15.55,-31.81 15.55,-62.9 15.55,-79.16 0,-15.55 16.26,-47.36 31.81,-62.9 16.26,-15.55 31.81,-15.55 63.61,-15.55 31.1,0 47.36,0 62.9,15.55 15.55,15.55 31.81,31.81 31.81,47.36 15.55,62.9 31.81,126.51 47.36,205.68 15.55,79.16 31.81,158.33 47.36,236.78 15.55,79.16 31.81,158.33 47.36,221.94 15.55,78.46 31.81,142.07 47.36,204.97 16.26,-47.36 31.81,-94.71 47.36,-157.61 16.26,-63.61 31.81,-126.51 47.36,-190.13 16.26,-62.9 31.81,-126.51 47.36,-189.43 16.26,-63.61 31.81,-126.51 31.81,-173.87 16.26,-47.36 16.26,-95.42 31.81,-126.51 0,-31.81 15.55,-47.36 15.55,-47.36 0,-16.26 16.26,-47.36 31.81,-47.36 15.55,-16.26 31.81,-16.26 47.36,-16.26 16.26,0 47.36,0 63.61,16.26 15.55,15.55 31.1,31.1 31.1,47.36l0 0c0,0 0,0 0,15.55 0,15.55 0,47.36 -15.55,94.71 -15.55,47.36 -15.55,110.97 -31.81,190.13 -15.55,79.16 -31.1,142.07 -47.36,236.78 -15.55,79.16 -31.81,158.33 -47.36,237.48 -15.55,79.16 -31.81,142.07 -47.36,205.68 -15.55,62.9 -31.81,94.71 -47.36,110.26 -15.55,31.81 -31.81,47.36 -63.61,47.36 -15.55,0 -47.36,16.26 -62.9,16.26l-15.55 0c-16.26,0 -16.26,0 -31.81,0 -15.55,0 -15.55,-16.26 -31.81,-16.26 -15.55,-15.55 -15.55,-15.55 -31.81,-31.81 -15.55,-15.55 -31.1,-62.9 -47.36,-110.26 -15.55,-47.36 -31.1,-110.97 -47.36,-190.13 -15.55,-62.9 -31.1,-142.07 -47.36,-221.23 -47.36,-94.71 -62.9,-173.87 -79.16,-236.78z"/>
  <path class="fil6" d="M52330.21 4031.61c-31.81,-78.46 -47.36,-157.61 -79.16,-221.23 -31.1,-62.9 -47.36,-126.51 -78.46,-189.43 0,-16.26 -16.26,-31.81 -16.26,-47.36 0,-16.26 -15.55,-31.81 -15.55,-31.81 0,0 0,15.55 -16.26,31.81 0,15.55 -15.55,31.1 -15.55,47.36 -31.81,62.9 -47.36,126.51 -79.16,189.43 -15.55,63.61 -47.36,142.77 -79.16,221.23l379.55 0 0.02 0zm-426.91 158.33c-15.55,63.61 -31.81,110.97 -47.36,173.87 -15.55,47.36 -31.81,94.71 -47.36,126.51 -15.55,31.81 -47.36,47.36 -79.16,47.36 -31.81,0 -47.36,0 -62.9,-15.55 -16.26,-16.26 -16.26,-31.81 -16.26,-63.61 0,-15.55 0,-15.55 0,-31.1 0,0 16.26,-31.81 16.26,-79.16 15.55,-47.36 31.1,-94.71 47.36,-158.33 15.55,-62.9 47.36,-142.07 62.9,-221.23 31.81,-79.16 47.36,-158.33 79.16,-237.48 31.81,-78.46 47.36,-142.07 79.16,-204.97 31.81,-63.61 47.36,-126.51 79.16,-158.33 15.55,-16.26 15.55,-31.81 47.36,-47.36 15.55,0 47.36,-16.26 62.9,-16.26 31.81,0 47.36,0 63.61,16.26 15.55,15.55 31.81,31.1 47.36,47.36 15.55,31.81 31.81,94.71 62.9,158.33 31.81,62.9 48.06,126.51 79.16,204.97 31.81,79.16 47.36,142.77 79.16,221.94 31.81,78.46 47.36,142.07 79.16,204.97 15.55,63.61 47.36,126.51 62.9,173.87 16.26,47.36 31.81,79.16 31.81,95.42 0,0 0,15.55 0,31.1 0,16.26 0,47.36 -15.55,63.61 -16.26,15.55 -31.81,15.55 -63.61,15.55 -15.55,0 -31.1,0 -47.36,-15.55 -15.55,-16.26 -15.55,-16.26 -31.81,-47.36 -15.55,-31.81 -31.1,-79.16 -47.36,-126.51 -15.55,-47.36 -31.1,-110.97 -47.36,-173.87l-474.27 0 0 15.55 0.01 0.01zm0 0l0 0 0 0z"/>
  <path class="fil6" d="M52962.8 4063.41l-15.55 -15.55c0,0 -16.26,-16.26 -16.26,-31.81 -15.55,-31.81 -31.1,-47.36 -62.9,-94.71 -16.26,-31.81 -47.36,-79.16 -63.61,-110.97 -15.55,-47.36 -47.36,-79.16 -62.9,-126.51 -16.26,-47.36 -31.81,-79.16 -47.36,-110.26 -16.26,-31.81 -31.81,-63.61 -47.36,-95.42 -16.26,-31.1 -16.26,-47.36 -16.26,-47.36l0 -15.55c0,0 0,0 0,-15.55 0,-16.26 0,-48.06 16.26,-63.61 15.55,-15.55 31.1,-15.55 62.9,-15.55 31.81,0 47.36,0 47.36,15.55 16.26,15.55 16.26,31.81 16.26,31.81 0,0 15.55,15.55 15.55,47.36 15.55,15.55 15.55,47.36 31.81,79.16 15.55,31.81 31.1,62.9 47.36,110.26 15.55,31.81 31.1,79.16 47.36,110.97 15.55,31.81 31.81,62.9 47.36,110.97 15.55,31.1 31.81,62.9 47.36,78.46 31.81,-31.1 47.36,-78.46 79.16,-142.07 31.81,-47.36 47.36,-110.97 79.16,-158.33 31.1,-47.36 47.36,-94.71 62.9,-142.07 16.26,-47.36 31.81,-62.9 31.81,-79.16 0,-15.55 15.55,-31.81 15.55,-31.81 16.26,-15.55 31.81,-15.55 47.36,-15.55 31.81,0 47.36,0 63.61,15.55 15.55,16.26 15.55,31.81 15.55,63.61l0 15.55c0,0 0,0 0,16.26 0,15.55 -15.55,31.1 -15.55,47.36 -16.26,31.1 -31.81,62.9 -47.36,94.71 -16.26,31.81 -31.81,79.16 -47.36,110.97 -16.26,47.36 -47.36,78.46 -63.61,125.81 -15.55,48.06 -47.36,79.16 -62.9,110.97 -16.26,31.81 -47.36,63.61 -63.61,94.71 -15.55,16.26 -15.55,31.81 -31.81,47.36l0 395.81c0,31.1 0,47.36 -31.1,62.9 -16.26,15.55 -31.81,15.55 -63.61,15.55 -31.81,0 -47.36,-15.55 -62.9,-15.55 -16.26,-15.55 -16.26,-31.81 -16.26,-62.9l0 -411.36 63.61 0 -0.02 -0.01zm0 0l0 0 0 0z"/>
  <path class="fil0" d="M68487.71 0.01l-9218.12 0c-916.72,0 -1644.02,742.85 -1644.02,1644.02l0 4617.54c0,916.72 742.85,1644.02 1644.02,1644.02l9218.12 0c917.43,0 1644.73,-742.85 1644.73,-1644.02l0 -4616.84c0,-901.88 -743.56,-1644.73 -1644.73,-1644.73l0 0.01z"/>
  <path class="fil8" d="M61040.85 2956.57c-126.51,-126.51 -315.94,-189.43 -490.52,-173.87l-663.69 0c-47.36,0 -94.71,31.81 -94.71,79.16l-300.39 1739.44c0,31.1 15.55,62.9 47.36,62.9l0 0 332.2 0c47.36,0 78.46,-31.81 94.71,-62.9l79.16 -474.27c0,-47.36 47.36,-79.16 94.71,-79.16l221.23 0c379.55,47.36 727.3,-237.48 774.65,-617.04 0,-15.55 0,-31.1 0,-47.36 31.81,-142.07 0,-300.39 -94.71,-426.91l-0.01 0.01zm-411.36 458.71c-31.1,237.48 -221.23,237.48 -395.1,237.48l-94.71 0 62.9 -458.71c0,-31.81 31.81,-47.36 63.61,-47.36l47.36 0c126.51,0 236.78,0 300.39,62.9 15.55,79.16 31.81,142.07 15.55,205.68l-0.01 0.01z"/>
  <path class="fil8" d="M62590.15 3415.28l-332.2 0c-31.1,0 -47.36,15.55 -62.9,47.36l0 94.71 -15.55 -31.1c-95.42,-95.42 -237.48,-158.33 -379.55,-142.77 -379.55,16.26 -679.95,284.84 -727.3,664.39 -31.81,173.87 15.55,363.3 126.51,506.07 110.26,110.26 253.04,173.87 410.65,157.61 173.87,0 332.2,-62.9 443.17,-189.43l0 94.71c0,31.81 15.55,63.61 47.36,63.61l300.39 0c47.36,0 94.71,-31.81 94.71,-79.16l173.87 -1123.11c15.55,-31.1 0,-62.9 -31.81,-62.9 -31.1,-15.55 -47.36,-15.55 -47.36,0l0 0.01zm-822.01 948.53c-79.16,0 -158.33,-31.81 -221.23,-79.16 -47.36,-62.9 -63.61,-157.61 -47.36,-236.78 15.55,-190.13 173.87,-332.2 363.3,-332.2 79.16,0 158.33,31.81 221.23,94.71 47.36,63.61 79.16,142.77 63.61,237.48 -31.81,173.87 -205.68,315.94 -379.55,315.94l0 0.01z"/>
  <path class="fil8" d="M64314.04 3415.28l-332.2 0c-31.81,0 -63.61,15.55 -79.16,47.36l-458.71 664.39 -173.87 -648.85c-15.55,-47.36 -47.36,-62.9 -94.71,-62.9l-332.2 0c-31.81,0 -62.9,31.81 -62.9,62.9l0 16.26 363.3 1059.5 -332.2 474.27c-15.55,31.1 -15.55,62.9 16.26,79.16 15.55,0 15.55,15.55 31.81,15.55l331.49 0c31.81,0 63.61,-15.55 79.16,-31.81l1091.3 -1581.11c15.55,-31.81 0,-62.9 -47.36,-94.71 15.55,0 15.55,0 0,0l0 -0.02z"/>
  <path class="fil9" d="M65895.16 2956.57c-126.51,-126.51 -316.65,-189.43 -490.52,-173.87l-679.95 0c-47.36,0 -79.16,31.81 -94.71,79.16l-284.84 1739.44c0,31.1 16.26,62.9 47.36,62.9l0 0 348.45 0c31.1,0 62.9,-31.81 62.9,-62.9l79.16 -490.52c0,-47.36 47.36,-79.16 94.71,-79.16l221.23 0c379.55,48.06 727.3,-236.78 774.65,-616.34 0,-15.55 0,-15.55 0,-31.81 31.81,-142.07 16.26,-300.39 -78.46,-426.91zm-411.36 474.26c-31.81,237.48 -221.23,237.48 -395.1,237.48l-95.42 0 79.16 -458.71c0,-31.81 31.81,-47.36 63.61,-47.36l0 0 47.36 0c126.51,0 236.78,0 300.39,63.61 0,62.9 15.55,125.81 0,204.97l0 0 -0.01 0.01z"/>
  <path class="fil9" d="M67428.21 3415.28l-331.49 0c-31.81,0 -47.36,15.55 -63.61,47.36l0 94.71 -15.55 -31.1c-94.71,-95.42 -237.48,-158.33 -379.55,-142.77 -379.55,16.26 -679.95,284.84 -727.3,664.39 -31.81,173.87 0,363.3 126.51,506.07 110.26,110.26 253.04,173.87 411.36,157.61 173.87,0 331.49,-62.9 458.01,-189.43l0 94.71c0,31.81 16.26,63.61 47.36,63.61l0 0 300.39 0c48.06,0 79.16,-31.81 95.42,-79.16l157.61 -1123.11c0,-31.1 -15.55,-62.9 -47.36,-62.9 -15.55,0 -15.55,0 -31.81,0l0.01 0.01zm-822.01 948.53c-79.16,0 -157.61,-31.81 -221.23,-79.16 -47.36,-62.9 -62.9,-157.61 -47.36,-236.78 15.55,-190.13 173.87,-332.2 363.3,-332.2 142.77,-15.55 269.29,94.71 284.84,237.48 0,31.1 0,62.9 -15.55,94.71 -16.26,189.43 -173.87,315.94 -364,315.94l0.01 0.01z"/>
  <path class="fil9" d="M68187.32 2782.69l-332.2 0c-31.1,0 -47.36,16.26 -62.9,47.36l-253.04 1786.8c0,31.81 15.55,63.61 47.36,63.61 0,0 0,0 16.26,0l284.14 0c47.36,0 79.16,-31.81 94.71,-79.16l269.29 -1754.99c0,-31.81 -31.81,-63.61 -63.61,-63.61l0 0 0 -0.01z"/>
  <path class="fil0" d="M82890.21 0.01l-9218.12 0c-916.72,0 -1644.02,742.85 -1644.02,1644.02l0 4617.54c0,916.72 742.85,1644.02 1644.02,1644.02l9218.12 0c917.43,0 1644.73,-742.85 1644.73,-1644.02l0 -4616.84c0,-901.88 -743.56,-1644.73 -1644.73,-1644.73l0 0.01z"/>
  <g style="clip-path:url(#id0)">
   <g id="_2469149037264">
   </g>
   <g style="clip-path:url(#id1)">
    <image x="72823.85" y="-1504.86" width="10915.31" height="10915.31" xlink:href="payment_Images\payment_ImgID1.png"/>
   </g>
   <g style="clip-path:url(#id2)">
   </g>
  </g>
  <path class="fil10" d="M82890.21 0.01l-9218.12 0c-916.72,0 -1644.02,742.85 -1644.02,1644.02l0 4617.54c0,916.72 742.85,1644.02 1644.02,1644.02l9218.12 0c917.43,0 1644.73,-742.85 1644.73,-1644.02l0 -4616.84c0,-901.88 -743.56,-1644.73 -1644.73,-1644.73l0 0.01z"/>
 </g>
</svg>
